<?xml version="1.0" encoding="UTF-8" standalone="no"?>
<svg
   xmlns:dc="http://purl.org/dc/elements/1.1/"
   xmlns:cc="http://creativecommons.org/ns#"
   xmlns:rdf="http://www.w3.org/1999/02/22-rdf-syntax-ns#"
   xmlns:svg="http://www.w3.org/2000/svg"
   xmlns="http://www.w3.org/2000/svg"
   xmlns:xlink="http://www.w3.org/1999/xlink"
   xmlns:sodipodi="http://sodipodi.sourceforge.net/DTD/sodipodi-0.dtd"
   xmlns:inkscape="http://www.inkscape.org/namespaces/inkscape"
   viewBox="0 0 1024 1024"
   version="1.1"
   id="svg225"
   sodipodi:docname="athleteMaleYellow_happy.svg"
   inkscape:version="1.0.1 (0767f8302a, 2020-10-17)">
  <metadata
     id="metadata229">
    <rdf:RDF>
      <cc:Work
         rdf:about="">
        <dc:format>image/svg+xml</dc:format>
        <dc:type
           rdf:resource="http://purl.org/dc/dcmitype/StillImage" />
        <dc:title>athleteMaleYellow</dc:title>
      </cc:Work>
    </rdf:RDF>
  </metadata>
  <sodipodi:namedview
     pagecolor="#ffffff"
     bordercolor="#666666"
     borderopacity="1"
     objecttolerance="10"
     gridtolerance="10"
     guidetolerance="10"
     inkscape:pageopacity="0"
     inkscape:pageshadow="2"
     inkscape:window-width="1920"
     inkscape:window-height="1052"
     id="namedview227"
     showgrid="false"
     inkscape:zoom="2.6074563"
     inkscape:cx="348.98301"
     inkscape:cy="216.03942"
     inkscape:window-x="1920"
     inkscape:window-y="0"
     inkscape:window-maximized="1"
     inkscape:current-layer="SkinComplete" />
  <defs
     id="defs31">
    <style
       id="style2">.cls-1{isolation:isolate;}.cls-2{fill:#fff;}.cls-3{fill:#f39454;}.cls-4{fill:#f6a563;}.cls-5{opacity:0.1;mix-blend-mode:multiply;fill:url(#linear-gradient);}.cls-10,.cls-26,.cls-6{opacity:0.15;}.cls-10,.cls-11,.cls-12,.cls-17,.cls-18,.cls-25,.cls-26,.cls-27,.cls-6{mix-blend-mode:overlay;}.cls-6{fill:url(#linear-gradient-2);}.cls-7{fill:#e4783e;}.cls-8{fill:red;}.cls-9{fill:#220f0f;}.cls-11,.cls-12,.cls-25,.cls-27{opacity:0.25;}.cls-12{fill:none;stroke:#000;stroke-linecap:round;stroke-miterlimit:10;stroke-width:5px;}.cls-13{fill:blue;}.cls-14{fill:#f99d28;}.cls-15{fill:#ccdde7;}.cls-16{fill:#ffca3e;}.cls-17,.cls-18{opacity:0.45;}.cls-17{fill:url(#linear-gradient-3);}.cls-18{fill:url(#linear-gradient-4);}.cls-19{fill:lime;}.cls-20{fill:#f59f5e;}.cls-21{fill:#f8c79d;}.cls-22{fill:#d3eef4;}.cls-23{fill:#badde2;}.cls-24{fill:aqua;}.cls-25{fill:url(#radial-gradient);}.cls-26{fill:url(#linear-gradient-5);}.cls-27{fill:url(#linear-gradient-6);}</style>
    <linearGradient
       id="linear-gradient"
       x1="321.5"
       y1="490"
       x2="321.5"
       y2="187.52"
       gradientUnits="userSpaceOnUse">
      <stop
         offset="0"
         stop-color="#f69878"
         id="stop4" />
      <stop
         offset="1"
         stop-color="#f69878"
         stop-opacity="0"
         id="stop6" />
    </linearGradient>
    <linearGradient
       id="linear-gradient-2"
       x1="321.68"
       y1="286"
       x2="321.68"
       y2="431.12"
       gradientUnits="userSpaceOnUse">
      <stop
         offset="0"
         id="stop9" />
      <stop
         offset="1"
         stop-opacity="0"
         id="stop11" />
    </linearGradient>
    <linearGradient
       id="linear-gradient-3"
       x1="657.77"
       y1="835.05"
       x2="657.77"
       y2="786.3"
       gradientUnits="userSpaceOnUse">
      <stop
         offset="0"
         stop-opacity="0"
         id="stop14" />
      <stop
         offset="1"
         id="stop16" />
    </linearGradient>
    <linearGradient
       id="linear-gradient-4"
       x1="794.72"
       y1="835.05"
       x2="794.72"
       y2="786.3"
       xlink:href="#linear-gradient-3" />
    <radialGradient
       id="radial-gradient"
       cx="836.18"
       cy="770.55"
       r="257.93"
       gradientTransform="translate(-657.23 -13.8) scale(1.16 0.99)"
       gradientUnits="userSpaceOnUse">
      <stop
         offset="0"
         stop-color="#fff"
         stop-opacity="0"
         id="stop20" />
      <stop
         offset="1"
         id="stop22" />
    </radialGradient>
    <linearGradient
       id="linear-gradient-5"
       x1="824"
       y1="1024"
       x2="824"
       y2="764"
       gradientUnits="userSpaceOnUse">
      <stop
         offset="0"
         stop-color="#fff"
         id="stop25" />
      <stop
         offset="1"
         id="stop27" />
    </linearGradient>
    <linearGradient
       id="linear-gradient-6"
       x1="826.3"
       y1="329.21"
       x2="961.1"
       y2="329.21"
       gradientTransform="matrix(1, 0, 0, 1, 0, 0)"
       xlink:href="#radial-gradient" />
  </defs>
  <title
     id="title33">athleteMaleYellow</title>
  <g
     class="cls-1"
     id="g223">
    <g
       id="SkinComplete">
      <rect
         class="cls-2"
         width="1024"
         height="1024"
         id="rect35" />
      <rect
         class="cls-3"
         x="624"
         y="524"
         width="400"
         height="240"
         id="rect37" />
      <rect
         class="cls-4"
         width="643"
         height="490"
         id="rect39" />
      <rect
         class="cls-5"
         y="139.59"
         width="643"
         height="350.41"
         id="rect41" />
      <rect
         class="cls-4"
         x="824"
         y="134"
         width="200"
         height="390"
         id="rect43" />
      <path
         class="cls-6"
         d="M366,299h0a89.81,89.81,0,0,0-19.13,2.07h0a89.33,89.33,0,0,1-19.14,2.07H315.59a89.26,89.26,0,0,1-19.14-2.07h0A89.81,89.81,0,0,0,277.32,299h0a43.74,43.74,0,0,0-33,15c-6.51,7.48-12.32,16.72-11.37,25.21l15.3,137,71.88,5.58,1.52-2.82,1.52,2.82,71.87-5.58,15.31-137c.95-8.49-4.86-17.73-11.38-25.21A43.71,43.71,0,0,0,366,299Z"
         id="path45" />
      <path
         class="cls-7"
         d="M442.55,216.37h8.29a18.41,18.41,0,0,1,18.41,18.41v1.43a18.41,18.41,0,0,1-18.41,18.41h-8.29a0,0,0,0,1,0,0V216.37A0,0,0,0,1,442.55,216.37Z"
         id="path47" />
      <path
         class="cls-4"
         d="M437.85,216.37h8.29a18.41,18.41,0,0,1,18.41,18.41v1.43a18.41,18.41,0,0,1-18.41,18.41h-8.29a0,0,0,0,1,0,0V216.37a0,0,0,0,1,0,0Z"
         id="path49" />
      <ellipse
         class="cls-7"
         cx="451.21"
         cy="235.5"
         rx="7.93"
         ry="4.4"
         transform="translate(132.36 632.21) rotate(-78.77)"
         id="ellipse51" />
      <path
         class="cls-7"
         d="M173.56,216.37h8.29a18.41,18.41,0,0,1,18.41,18.41v1.43a18.41,18.41,0,0,1-18.41,18.41h-8.29a0,0,0,0,1,0,0V216.37A0,0,0,0,1,173.56,216.37Z"
         transform="translate(373.83 471) rotate(-180)"
         id="path53" />
      <path
         class="cls-4"
         d="M178.26,216.37h8.29A18.41,18.41,0,0,1,205,234.78v1.43a18.41,18.41,0,0,1-18.41,18.41h-8.29a0,0,0,0,1,0,0V216.37A0,0,0,0,1,178.26,216.37Z"
         transform="translate(383.22 471) rotate(-180)"
         id="path55" />
      <ellipse
         class="cls-7"
         cx="191.61"
         cy="235.5"
         rx="4.4"
         ry="7.93"
         transform="translate(-42.19 41.82) rotate(-11.23)"
         id="ellipse57" />
      <polygon
         class="cls-4"
         points="579.88 654.47 544.43 654.47 491.56 654.47 460 654.47 460 654.47 445.83 654.47 428.62 681.05 422.17 725.5 423.38 763.65 432.45 812.23 457.05 819.12 460 823.21 460 823.21 491.56 823.21 544.43 823.21 579.88 823.21 615.98 823.21 615.98 654.47 579.88 654.47"
         id="polygon59" />
      <polygon
         class="cls-4"
         points="194.91 654.47 180.74 654.47 180.74 654.47 149.18 654.47 96.31 654.47 60.86 654.47 24.76 654.47 24.76 823.21 60.86 823.21 96.31 823.21 149.18 823.21 180.74 823.21 180.74 823.21 183.69 819.12 208.29 812.23 217.36 763.65 218.57 725.5 212.12 681.05 194.91 654.47"
         id="polygon61" />
      <rect
         class="cls-4"
         x="624"
         y="864.49"
         width="400"
         height="159.51"
         id="rect63" />
      <rect
         class="cls-8"
         x="992"
         width="32"
         height="32"
         id="rect65" />
      <ellipse
         class="cls-4"
         cx="320.36"
         cy="746.08"
         rx="73.24"
         ry="132.26"
         id="ellipse67" />
      <ellipse
         class="cls-9"
         cx="287.04"
         cy="220.5"
         rx="8.96"
         ry="9.35"
         id="ellipse69" />
      <ellipse
         class="cls-9"
         cx="356.43"
         cy="220.5"
         rx="8.96"
         ry="9.35"
         id="ellipse71" />
      <path
         class="cls-10"
         d="M321.62,3.39V156H274.27a34.46,34.46,0,0,0-34,28.64.17.17,0,0,1,0,.07c-.09.45-.15.9-.21,1.35h-.81l6.93,64.32.14,1.33a6.09,6.09,0,0,1-6.05,6.73h-3.12a19.3,19.3,0,0,1-15.62-8c-6.26-8.66-14.95-17.48-18.8-26.29a20.22,20.22,0,0,0-21.69-11.6,6,6,0,0,0-1.84.63l-1.39.74a5.58,5.58,0,0,0-1.64,1.25c-4.27,4.75-10,21.42-18.73,32.95s-53,33.69-69.35,41.06l-29,13.47-.43.19-21,7.87a6,6,0,0,1-1,.28l-25.16,4.87L11,316l-4.11.49A6.2,6.2,0,0,1,0,310.28V9.6A6.21,6.21,0,0,1,6.2,3.39Z"
         id="path73" />
      <path
         class="cls-9"
         d="M321.62,0V163.71h-7.07c-19.17,0-19.7-5.71-35.75-7.69a100.93,100.93,0,0,0-12.46-.67c-20.78,0-25.21,18.63-26,29.31a.17.17,0,0,1,0,.07,55.3,55.3,0,0,0-.15,6.06l6.2,57.54a5.94,5.94,0,0,1-.14,2.07,6.09,6.09,0,0,1-5.91,4.67h-3.12a19.3,19.3,0,0,1-15.62-8c-6.26-8.66-14.95-17.48-18.8-26.29a20.21,20.21,0,0,0-21.69-11.6,5.74,5.74,0,0,0-1.84.63l-1.39.74a5.73,5.73,0,0,0-1.64,1.24c-4.27,4.76-10,21.43-18.73,33s-53,33.69-69.35,41.06l-29,13.47a3.25,3.25,0,0,1-.43.18l-21,7.88a7.08,7.08,0,0,1-1,.28l-25.16,4.87-.45.07L6.93,313A6.2,6.2,0,0,1,0,306.88V6.2A6.21,6.21,0,0,1,6.2,0Z"
         id="path75" />
      <path
         class="cls-10"
         d="M321.62,3.39V156H369a34.46,34.46,0,0,1,34,28.64.17.17,0,0,0,0,.07c.09.45.15.9.21,1.35H404l-6.93,64.32-.14,1.33a6.09,6.09,0,0,0,6,6.73h3.12a19.3,19.3,0,0,0,15.62-8c6.26-8.66,14.95-17.48,18.8-26.29a20.22,20.22,0,0,1,21.69-11.6,6,6,0,0,1,1.84.63l1.39.74a5.58,5.58,0,0,1,1.64,1.25c4.27,4.75,9.95,21.42,18.73,32.95s53,33.69,69.35,41.06l29,13.47.43.19,21,7.87a6,6,0,0,0,1,.28l25.16,4.87.45.07,4.11.49a6.2,6.2,0,0,0,6.93-6.16V9.6A6.21,6.21,0,0,0,637,3.39Z"
         id="path77" />
      <path
         class="cls-9"
         d="M321.62,0V163.71h7.07c19.17,0,19.7-5.71,35.75-7.69a100.93,100.93,0,0,1,12.46-.67c20.78,0,25.21,18.63,26.05,29.31a.17.17,0,0,0,0,.07,55.3,55.3,0,0,1,.15,6.06l-6.2,57.54a5.94,5.94,0,0,0,.14,2.07,6.09,6.09,0,0,0,5.91,4.67h3.12a19.3,19.3,0,0,0,15.62-8c6.26-8.66,14.95-17.48,18.8-26.29a20.21,20.21,0,0,1,21.69-11.6,5.74,5.74,0,0,1,1.84.63l1.39.74a5.73,5.73,0,0,1,1.64,1.24c4.27,4.76,9.95,21.43,18.73,33s53,33.69,69.35,41.06l29,13.47a3.25,3.25,0,0,0,.43.18l21,7.88a7.08,7.08,0,0,0,1,.28l25.16,4.87.45.07,4.11.48a6.2,6.2,0,0,0,6.93-6.16V6.2A6.21,6.21,0,0,0,637,0Z"
         id="path79" />
      <path
         class="cls-9"
         d="m 347.9634,201.04817 a 5.76,5.76 0 0 1 -2.18,-11.09 c 7.53,-3.08 14.67,-5.58 25.84,-5.05 a 5.76,5.76 0 1 1 -0.56,11.5 c -9.54,-0.47 -15.32,1.91 -20.92,4.2 a 5.59,5.59 0 0 1 -2.18,0.44 z"
         id="path81" />
      <path
         class="cls-9"
         d="m 298.10948,203.63934 a 5.84,5.84 0 0 1 -2.18,-0.43 c -5.6,-2.29 -11.41,-4.67 -20.92,-4.2 a 5.76,5.76 0 0 1 -0.55,-11.5 c 11.15,-0.54 18.31,2 25.84,5.05 a 5.76,5.76 0 0 1 -2.19,11.08 z"
         id="path83" />
      <g
         class="cls-11"
         id="g89">
        <path
           d="M333.81,242.61c-1.57,5.14-6.35,6.87-12,6.87V237.76l9.95,1.59A2.56,2.56,0,0,1,333.81,242.61Z"
           id="path85" />
        <path
           d="M309.84,242.61c1.57,5.14,6.35,6.87,12,6.87V237.76l-9.95,1.59A2.56,2.56,0,0,0,309.84,242.61Z"
           id="path87" />
      </g>
      <path
         class="cls-10"
         d="M321.74,275.26a5.93,5.93,0,0,0-3.7,2.09,2.55,2.55,0,0,0,2.36,4.12l4.43-.67a2.54,2.54,0,0,0,1.05-4.63A6,6,0,0,0,321.74,275.26Z"
         id="path91" />
      <g
         id="g1070"
         transform="rotate(4.6782514,328.2546,257.94562)"
         inkscape:transform-center-x="-10.32324"
         inkscape:transform-center-y="-7.7624597">
        <path
           d="m 337.14558,257.3753 v 1.15 a 15.13,15.13 0 0 1 -5.17,11.41 c -0.4,0.34 -0.81,0.67 -1.23,1 -0.21,0.15 -0.41,0.28 -0.62,0.41 a 15.26,15.26 0 0 1 -1.98,1.03 14.92,14.92 0 0 1 -5.79,1.32 h -0.83 a 14.93,14.93 0 0 1 -5.8,-1.32 15.26,15.26 0 0 1 -1.95,-1.06 c -0.21,-0.13 -0.41,-0.27 -0.61,-0.41 a 14.57,14.57 0 0 1 -1.23,-1 15.13,15.13 0 0 1 -5.17,-11.41 v -1.12 z"
           id="path214" />
        <ellipse
           class="cls-38"
           cx="321.9556"
           cy="269.31531"
           rx="6.2800002"
           ry="4.3899999"
           id="ellipse216"
           style="fill:#dd2b26" />
        <path
           class="cls-2"
           d="m 308.04558,257.3753 a 4.4,4.4 0 0 0 4.42,4.42 h 19 a 4.41,4.41 0 0 0 4.42,-4.42 z"
           id="path218"
           style="fill:#ffffff" />
        <path
           class="cls-2"
           d="m 330.14558,271.2753 a 15.26,15.26 0 0 1 -2,1.1 14.92,14.92 0 0 1 -5.79,1.32 h -0.83 a 14.93,14.93 0 0 1 -5.8,-1.32 15.26,15.26 0 0 1 -1.95,-1.06 c 1.46,-1.26 4.57,-1.25 8.16,-1.25 3.59,0 6.7,-0.01 8.21,1.21 z"
           id="path220"
           style="fill:#ffffff" />
      </g>
      <rect
         class="cls-9"
         x="323.09"
         y="251.84"
         width="30.35"
         height="7.76"
         rx="3.88"
         ry="3.88"
         transform="translate(44.65 -50.23) rotate(9.09)"
         id="rect95" />
      <rect
         class="cls-9"
         x="290.2"
         y="251.84"
         width="30.35"
         height="7.76"
         rx="3.88"
         ry="3.88"
         transform="translate(647.32 459.98) rotate(170.91)"
         id="rect97" />
      <rect
         class="cls-13"
         x="992"
         width="32"
         height="32"
         id="rect99" />
      <rect
         class="cls-7"
         x="643"
         width="381"
         height="134"
         id="rect101" />
      <rect
         class="cls-14"
         x="643"
         y="134"
         width="181"
         height="390"
         id="rect103" />
      <polygon
         class="cls-2"
         points="685.44 439.39 707.95 424.66 745.85 424.66 766.21 445.84 763.57 471.33 735.92 484.58 701.16 478.78 685.44 439.39"
         id="polygon105" />
      <polygon
         class="cls-2"
         points="685.44 264.47 707.95 249.74 745.85 249.74 766.21 270.93 763.57 296.42 735.92 309.66 701.16 303.87 685.44 264.47"
         id="polygon107" />
      <rect
         class="cls-2"
         x="713.32"
         y="395.74"
         width="26.58"
         height="5.41"
         rx="2.7"
         ry="2.7"
         id="rect109" />
      <rect
         class="cls-2"
         x="713.32"
         y="386.11"
         width="26.58"
         height="5.41"
         rx="2.7"
         ry="2.7"
         id="rect111" />
      <rect
         class="cls-2"
         x="713.32"
         y="405.83"
         width="26.58"
         height="5.41"
         rx="2.7"
         ry="2.7"
         id="rect113" />
      <rect
         class="cls-2"
         x="713.32"
         y="221.15"
         width="26.58"
         height="5.41"
         rx="2.7"
         ry="2.7"
         id="rect115" />
      <rect
         class="cls-2"
         x="713.32"
         y="210.84"
         width="26.58"
         height="5.41"
         rx="2.7"
         ry="2.7"
         id="rect117" />
      <rect
         class="cls-2"
         x="713.32"
         y="231.25"
         width="26.58"
         height="5.41"
         rx="2.7"
         ry="2.7"
         id="rect119" />
      <path
         class="cls-15"
         d="M806,315.06l-8.41,15.88-.11,13.64L779,393.74l-11.25,31.05L756,456.55a25.15,25.15,0,0,1-7.8,10.82h0a25.17,25.17,0,0,1-11.82,5.27l-6,1a25.15,25.15,0,0,1-9.7-.34l-4.78-1.11a25.16,25.16,0,0,1-12.13-6.73l-.59-.59a25.08,25.08,0,0,1-5.47-8.21L689.55,437l-11.5-28.5-4-13.8-6-26.11L666.6,353l-.05-26.66h-20.5V483.78l57.24,18H797l13-48,10.5-98.48V319.61Z"
         id="path121" />
      <path
         class="cls-15"
         d="M806,139.59l-8.17,15.88-.12,13.64L779,218.27l-11.25,31L756,281.09a25.15,25.15,0,0,1-7.8,10.82h0a25.15,25.15,0,0,1-11.82,5.26l-6,1a25.14,25.14,0,0,1-9.7-.33l-4.78-1.11A25.32,25.32,0,0,1,703.69,290l-.59-.59a25,25,0,0,1-5.47-8.22l-8.08-19.59-11.5-28.5-4-13.8-6-26.1L666.6,177.5l-.05-26.65h-20.5V308.31l57.24,18H797l13-48,10.5-98.49V144.14Z"
         id="path123" />
      <path
         class="cls-2"
         d="M692.28,330.68l3.64,22.77a23.6,23.6,0,0,0,5.46,11.72l8.31,9.59a23.6,23.6,0,0,0,17.82,8.13h0a23.59,23.59,0,0,0,14.58-5.05l3.43-2.7a23.55,23.55,0,0,0,5.29-5.84l4.8-7.53a23.4,23.4,0,0,0,2.21-4.42L768.42,329H692.28Z"
         id="path125" />
      <path
         class="cls-2"
         d="M692.28,154.72l3.64,22.77a23.6,23.6,0,0,0,5.46,11.72l8.31,9.58a23.58,23.58,0,0,0,17.82,8.14h0a23.59,23.59,0,0,0,14.58-5.05l3.43-2.71a23.37,23.37,0,0,0,5.29-5.84l4.8-7.52a23.79,23.79,0,0,0,2.21-4.43L768.42,153H692.28Z"
         id="path127" />
      <rect
         class="cls-16"
         x="624"
         y="764"
         width="400"
         height="109.12"
         id="rect129" />
      <rect
         class="cls-2"
         x="631.59"
         y="968.54"
         width="383.62"
         height="48.93"
         id="rect131" />
      <rect
         class="cls-15"
         x="631.59"
         y="968.54"
         width="383.62"
         height="6.96"
         id="rect133" />
      <rect
         class="cls-14"
         x="624"
         y="864.42"
         width="400"
         height="8.7"
         id="rect135" />
      <rect
         class="cls-14"
         x="624"
         y="775.88"
         width="400"
         height="26.57"
         id="rect137" />
      <path
         class="cls-17"
         d="M682.15,786.3a48.75,48.75,0,0,1-48.75,48.75V786.3Z"
         id="path139" />
      <path
         class="cls-18"
         d="M770.35,786.3a48.75,48.75,0,0,0,48.75,48.75V786.3Z"
         id="path141" />
      <rect
         class="cls-19"
         x="992"
         width="32"
         height="32"
         id="rect143" />
      <path
         class="cls-16"
         d="M180.74,484.58V1024H460V484.58Zm140.37,346.7c-25.08,0-45.41-54.27-45.41-85.91S296,717,321.11,717s45.4-3.3,45.4,28.33S346.18,831.28,321.11,831.28Z"
         id="path145" />
      <path
         class="cls-20"
         d="M620,654.47V823.21H489.65v26.72l-75.46-7.57h0l-2.14-.21a26.33,26.33,0,0,1-23.67-25c-.12-2.59-.22-5.18-.32-7.78V698.72q.39-9.76.93-19.52a36.56,36.56,0,0,1,34.51-34.5l8.12-.44h0l58-3.16v13.38Z"
         id="path147" />
      <path
         class="cls-20"
         d="M253.42,698.72V810q-.16,4.1-.35,8.18c-.5,10.53-7.15,20.43-16.56,24.18L162,850.82l-.13-27.61H20.76V654.47H161.13l-.08-16.81,46.76,3.93,11.37,1a36.56,36.56,0,0,1,33.19,34.38Q253,687.82,253.42,698.72Z"
         id="path149" />
      <rect
         class="cls-16"
         x="579.98"
         y="654.47"
         width="30.07"
         height="168.74"
         id="rect151" />
      <polygon
         class="cls-21"
         points="431.62 644.25 431.62 644.26 423.5 644.7 431.62 644.25"
         id="polygon153" />
      <path
         class="cls-20"
         d="M366.51,745.37c0,31.64-20.33,85.91-45.4,85.91S275.7,777,275.7,745.37s0-58.33,45.41-58.33S366.51,713.74,366.51,745.37Z"
         id="path155" />
      <path
         class="cls-2"
         d="M321.11,687c-45.41,0-45.41,26.7-45.41,58.33s20.33,85.91,45.41,85.91,45.4-54.27,45.4-85.91S366.51,687,321.11,687Zm0,137.24c-8.19,0-17.83-10.12-25.77-27.06-7.68-16.37-12.64-36.72-12.64-51.85,0-14.73,0-28.65,4.85-37.73,3.12-5.84,10-13.6,33.56-13.6s30.43,7.76,33.55,13.6c4.85,9.08,4.85,23,4.85,37.73,0,15.13-5,35.48-12.64,51.85C338.93,814.16,329.3,824.28,321.11,824.28Z"
         id="path157" />
      <rect
         class="cls-2"
         x="282.35"
         y="905.73"
         width="77.51"
         height="77.51"
         rx="11.58"
         ry="11.58"
         id="rect159" />
      <rect
         class="cls-16"
         x="292.07"
         y="962.46"
         width="58.06"
         height="8.14"
         rx="2.53"
         ry="2.53"
         id="rect161" />
      <rect
         class="cls-16"
         x="292.07"
         y="917.06"
         width="17.25"
         height="8.14"
         rx="1.92"
         ry="1.92"
         id="rect163" />
      <rect
         class="cls-16"
         x="314.68"
         y="917.06"
         width="35.46"
         height="8.14"
         rx="1.92"
         ry="1.92"
         id="rect165" />
      <rect
         class="cls-2"
         x="292.07"
         y="586.23"
         width="58.06"
         height="58.06"
         rx="8.67"
         ry="8.67"
         transform="translate(642.21 1230.53) rotate(180)"
         id="rect167" />
      <rect
         class="cls-16"
         x="299.36"
         y="595.71"
         width="43.49"
         height="6.1"
         rx="1.89"
         ry="1.89"
         transform="translate(642.21 1197.51) rotate(180)"
         id="rect169" />
      <rect
         class="cls-16"
         x="329.93"
         y="629.71"
         width="12.92"
         height="6.1"
         rx="1.44"
         ry="1.44"
         transform="translate(672.78 1265.51) rotate(180)"
         id="rect171" />
      <rect
         class="cls-16"
         x="299.36"
         y="629.71"
         width="26.56"
         height="6.1"
         rx="1.44"
         ry="1.44"
         transform="translate(625.28 1265.51) rotate(180)"
         id="rect173" />
      <rect
         class="cls-16"
         x="30.87"
         y="654.47"
         width="29.89"
         height="168.74"
         id="rect175" />
      <path
         class="cls-14"
         d="M30.87,654.47V823.21H60.76V654.47ZM53.76,816.21H37.87V661.47H53.76Z"
         id="path177" />
      <path
         class="cls-14"
         d="M580,654.47V823.21h30.07V654.47Zm23.07,161.74H587V661.47h16.07Z"
         id="path179" />
      <path
         class="cls-2"
         d="M406.31,1006.3H386.62a2083.85,2083.85,0,0,1,0-504.11h19.69A1364.49,1364.49,0,0,0,406.31,1006.3Z"
         id="path181" />
      <path
         class="cls-2"
         d="M270.17,754.24a2082,2082,0,0,1-15.3,252.06H235.19a1364.49,1364.49,0,0,0,0-504.11h19.68A2082,2082,0,0,1,270.17,754.24Z"
         id="path183" />
      <rect
         class="cls-14"
         x="180.74"
         y="997.3"
         width="279.26"
         height="26.7"
         id="rect185" />
      <rect
         class="cls-14"
         x="180.74"
         y="484.58"
         width="279.26"
         height="23.16"
         id="rect187" />
      <path
         class="cls-22"
         d="M480,641.62V849l-65.81-6.6h0l-2.14-.21a26.33,26.33,0,0,1-23.67-25c-.12-2.59-.22-5.18-.32-7.78V698.72q.39-9.76.93-19.52a36.56,36.56,0,0,1,34.51-34.5l8.12-.44h0Z"
         id="path189" />
      <path
         class="cls-22"
         d="M253.42,698.72V810q-.16,4.1-.35,8.18c-.5,10.53-7.15,20.43-16.56,24.18L162,850.82l-.13-27.61h-1.15V654.47h.39l-.08-16.81,46.76,3.93,11.37,1a36.56,36.56,0,0,1,33.19,34.38Q253,687.82,253.42,698.72Z"
         id="path191" />
      <rect
         class="cls-23"
         x="152.9"
         y="625.7"
         width="7.84"
         height="246.27"
         id="rect193" />
      <rect
         class="cls-23"
         x="480"
         y="625.7"
         width="7.84"
         height="246.27"
         id="rect195" />
      <g
         class="cls-10"
         id="g201">
        <rect
           x="145.05"
           y="625.7"
           width="7.84"
           height="246.27"
           transform="translate(297.95 1497.67) rotate(-180)"
           id="rect197" />
        <rect
           x="487.78"
           y="625.7"
           width="7.84"
           height="246.27"
           transform="translate(983.4 1497.67) rotate(-180)"
           id="rect199" />
      </g>
      <path
         class="cls-22"
         d="M366.5,746.29c-.38,31.76-20.56,85-45.39,85-23.12,0-42.2-46.12-45.05-78.12l5.36,16.35,6.94,13.23c13.82,26.35,51.74,25.79,64.76-1l6-12.32Z"
         id="path203" />
      <path
         class="cls-22"
         d="M366.51,743.47l-5.16-21.68-24-3.65-16.72-1.22L303,718.14l-24,3.65-3.2,13.46c.48-27,4.88-48.21,45.35-48.21C365.6,687,366.49,712.68,366.51,743.47Z"
         id="path205" />
      <path
         class="cls-2"
         d="M321.11,687c-45.41,0-45.41,26.7-45.41,58.33s20.33,85.91,45.41,85.91,45.4-54.27,45.4-85.91S366.51,687,321.11,687Zm0,137.24c-8.19,0-17.83-10.12-25.77-27.06-7.68-16.37-12.64-36.72-12.64-51.85,0-14.73,0-28.65,4.85-37.73,3.12-5.84,10-13.6,33.56-13.6s30.43,7.76,33.55,13.6c4.85,9.08,4.85,23,4.85,37.73,0,15.13-5,35.48-12.64,51.85C338.93,814.16,329.3,824.28,321.11,824.28Z"
         id="path207" />
      <path
         class="cls-16"
         d="M-1.86,159.12Q-.93,174,0,189a5111.61,5111.61,0,0,1,642,0q.94-14.92,1.88-29.83A5140.93,5140.93,0,0,0-1.86,159.12Z"
         id="path209" />
      <path
         class="cls-14"
         d="M644.14,154.17a5147.16,5147.16,0,0,0-646.33,0L0,189a5111.61,5111.61,0,0,1,642,0ZM1.67,180.67Q1.1,171.43.52,162.18a5137.17,5137.17,0,0,1,641.4,0q-.58,9.24-1.16,18.49A5119.39,5119.39,0,0,0,1.67,180.67Z"
         id="path211" />
    </g>
    <g
       id="Gradient_Overlay"
       data-name="Gradient Overlay">
      <rect
         class="cls-24"
         x="992"
         width="32"
         height="32"
         id="rect214" />
      <rect
         class="cls-25"
         x="15.67"
         y="494.89"
         width="600.31"
         height="511.91"
         rx="161.43"
         ry="161.43"
         id="rect216" />
      <rect
         class="cls-26"
         x="624"
         y="764"
         width="400"
         height="260"
         id="rect218" />
      <rect
         class="cls-27"
         x="826.3"
         y="147.59"
         width="181.7"
         height="363.24"
         id="rect220" />
    </g>
  </g>
</svg>
