<?xml version="1.0" encoding="UTF-8" standalone="no"?>
<svg
   xmlns:dc="http://purl.org/dc/elements/1.1/"
   xmlns:cc="http://creativecommons.org/ns#"
   xmlns:rdf="http://www.w3.org/1999/02/22-rdf-syntax-ns#"
   xmlns:svg="http://www.w3.org/2000/svg"
   xmlns="http://www.w3.org/2000/svg"
   xmlns:xlink="http://www.w3.org/1999/xlink"
   xmlns:sodipodi="http://sodipodi.sourceforge.net/DTD/sodipodi-0.dtd"
   xmlns:inkscape="http://www.inkscape.org/namespaces/inkscape"
   viewBox="0 0 1024 1024"
   version="1.1"
   id="svg227"
   sodipodi:docname="athleteMaleRed_angry.svg"
   inkscape:version="1.0.1 (0767f8302a, 2020-10-17)">
  <metadata
     id="metadata231">
    <rdf:RDF>
      <cc:Work
         rdf:about="">
        <dc:format>image/svg+xml</dc:format>
        <dc:type
           rdf:resource="http://purl.org/dc/dcmitype/StillImage" />
      </cc:Work>
    </rdf:RDF>
  </metadata>
  <sodipodi:namedview
     pagecolor="#ffffff"
     bordercolor="#666666"
     borderopacity="1"
     objecttolerance="10"
     gridtolerance="10"
     guidetolerance="10"
     inkscape:pageopacity="0"
     inkscape:pageshadow="2"
     inkscape:window-width="1920"
     inkscape:window-height="1052"
     id="namedview229"
     showgrid="false"
     inkscape:zoom="2.625"
     inkscape:cx="386.46926"
     inkscape:cy="335.34347"
     inkscape:window-x="1920"
     inkscape:window-y="0"
     inkscape:window-maximized="1"
     inkscape:current-layer="SkinComplete" />
  <defs
     id="defs37">
    <style
       id="style2">.cls-1{isolation:isolate;}.cls-2{fill:#fff;}.cls-3{fill:#f58c6a;}.cls-4{fill:#f69878;}.cls-12,.cls-16,.cls-30,.cls-5{opacity:0.15;}.cls-12,.cls-16,.cls-21,.cls-22,.cls-29,.cls-30,.cls-31,.cls-5{mix-blend-mode:overlay;}.cls-5{fill:url(#linear-gradient);}.cls-6{fill:#f37b67;}.cls-7{fill:url(#linear-gradient-2);}.cls-8{fill:url(#linear-gradient-3);}.cls-9{fill:red;}.cls-10{opacity:0.1;mix-blend-mode:multiply;fill:url(#linear-gradient-4);}.cls-11{fill:#220f0f;}.cls-13{fill:#dd2b26;}.cls-14{fill:blue;}.cls-15,.cls-16{fill:#4d160e;}.cls-17{fill:#e4783e;}.cls-18{fill:#ee4042;}.cls-19{fill:#ccdde7;}.cls-20{fill:#f2634a;}.cls-21,.cls-22{opacity:0.45;}.cls-21{fill:url(#linear-gradient-5);}.cls-22{fill:url(#linear-gradient-6);}.cls-23{fill:lime;}.cls-24{fill:#f59372;}.cls-25{fill:#f8c79d;}.cls-26{fill:#d3eef4;}.cls-27{fill:#badde2;}.cls-28{fill:aqua;}.cls-29,.cls-31{opacity:0.25;}.cls-29{fill:url(#radial-gradient);}.cls-30{fill:url(#linear-gradient-7);}.cls-31{fill:url(#linear-gradient-8);}</style>
    <linearGradient
       id="linear-gradient"
       x1="321.68"
       y1="286"
       x2="321.68"
       y2="431.12"
       gradientUnits="userSpaceOnUse">
      <stop
         offset="0"
         id="stop4" />
      <stop
         offset="1"
         stop-opacity="0"
         id="stop6" />
    </linearGradient>
    <linearGradient
       id="linear-gradient-2"
       x1="438.5"
       y1="235.5"
       x2="507.96"
       y2="235.5"
       gradientUnits="userSpaceOnUse">
      <stop
         offset="0"
         stop-color="#f69878"
         id="stop9" />
      <stop
         offset="1"
         stop-color="#f37b67"
         id="stop11" />
    </linearGradient>
    <linearGradient
       id="linear-gradient-3"
       x1="202"
       y1="235.5"
       x2="152.85"
       y2="235.5"
       gradientTransform="translate(383.22 471) rotate(180)"
       xlink:href="#linear-gradient-2" />
    <linearGradient
       id="linear-gradient-4"
       x1="321.5"
       y1="490"
       x2="321.5"
       y2="187.52"
       gradientUnits="userSpaceOnUse">
      <stop
         offset="0"
         stop-color="#f69878"
         id="stop15" />
      <stop
         offset="1"
         stop-color="#f69878"
         stop-opacity="0"
         id="stop17" />
    </linearGradient>
    <linearGradient
       id="linear-gradient-5"
       x1="657.77"
       y1="835.05"
       x2="657.77"
       y2="786.3"
       gradientUnits="userSpaceOnUse">
      <stop
         offset="0"
         stop-opacity="0"
         id="stop20" />
      <stop
         offset="1"
         id="stop22" />
    </linearGradient>
    <linearGradient
       id="linear-gradient-6"
       x1="794.72"
       y1="835.05"
       x2="794.72"
       y2="786.3"
       xlink:href="#linear-gradient-5" />
    <radialGradient
       id="radial-gradient"
       cx="534.01"
       cy="770.55"
       r="257.93"
       gradientTransform="translate(-305.6 -13.8) scale(1.16 0.99)"
       gradientUnits="userSpaceOnUse">
      <stop
         offset="0"
         stop-color="#fff"
         stop-opacity="0"
         id="stop26" />
      <stop
         offset="1"
         id="stop28" />
    </radialGradient>
    <linearGradient
       id="linear-gradient-7"
       x1="824"
       y1="1024"
       x2="824"
       y2="764"
       gradientUnits="userSpaceOnUse">
      <stop
         offset="0"
         stop-color="#fff"
         id="stop31" />
      <stop
         offset="1"
         id="stop33" />
    </linearGradient>
    <linearGradient
       id="linear-gradient-8"
       x1="826.3"
       y1="329.21"
       x2="961.1"
       y2="329.21"
       gradientTransform="matrix(1, 0, 0, 1, 0, 0)"
       xlink:href="#radial-gradient" />
  </defs>
  <title
     id="title39">athleteMaleRed</title>
  <g
     class="cls-1"
     id="g225">
    <g
       id="SkinComplete">
      <rect
         class="cls-2"
         width="1024"
         height="1024"
         id="rect41" />
      <rect
         class="cls-3"
         x="624"
         y="524"
         width="400"
         height="240"
         id="rect43" />
      <rect
         class="cls-4"
         width="643"
         height="490"
         id="rect45" />
      <path
         class="cls-5"
         d="M366,299h0a89.81,89.81,0,0,0-19.13,2.07h0a89.33,89.33,0,0,1-19.14,2.07H315.59a89.26,89.26,0,0,1-19.14-2.07h0A89.81,89.81,0,0,0,277.32,299h0a43.74,43.74,0,0,0-33,15c-6.51,7.48-12.32,16.72-11.37,25.21l15.3,137,71.88,5.58,1.52-2.82,1.52,2.82,71.87-5.58,15.31-137c.95-8.49-4.86-17.73-11.38-25.21A43.71,43.71,0,0,0,366,299Z"
         id="path47" />
      <rect
         class="cls-4"
         x="824"
         y="134"
         width="200"
         height="390"
         id="rect49" />
      <path
         class="cls-6"
         d="M442.55,216.37h8.29a18.41,18.41,0,0,1,18.41,18.41v1.43a18.41,18.41,0,0,1-18.41,18.41h-8.29a0,0,0,0,1,0,0V216.37A0,0,0,0,1,442.55,216.37Z"
         id="path51" />
      <path
         class="cls-7"
         d="M437.85,216.37h8.29a18.41,18.41,0,0,1,18.41,18.41v1.43a18.41,18.41,0,0,1-18.41,18.41h-8.29a0,0,0,0,1,0,0V216.37A0,0,0,0,1,437.85,216.37Z"
         id="path53" />
      <ellipse
         class="cls-6"
         cx="451.21"
         cy="235.5"
         rx="7.93"
         ry="4.4"
         transform="translate(132.36 632.21) rotate(-78.77)"
         id="ellipse55" />
      <path
         class="cls-6"
         d="M173.56,216.37h8.29a18.41,18.41,0,0,1,18.41,18.41v1.43a18.41,18.41,0,0,1-18.41,18.41h-8.29a0,0,0,0,1,0,0V216.37A0,0,0,0,1,173.56,216.37Z"
         transform="translate(373.83 471) rotate(-180)"
         id="path57" />
      <path
         class="cls-8"
         d="M178.26,216.37h8.29A18.41,18.41,0,0,1,205,234.78v1.43a18.41,18.41,0,0,1-18.41,18.41h-8.29a0,0,0,0,1,0,0V216.37A0,0,0,0,1,178.26,216.37Z"
         transform="translate(383.22 471) rotate(-180)"
         id="path59" />
      <ellipse
         class="cls-6"
         cx="191.61"
         cy="235.5"
         rx="4.4"
         ry="7.93"
         transform="translate(-42.19 41.82) rotate(-11.23)"
         id="ellipse61" />
      <polygon
         class="cls-4"
         points="579.88 654.47 544.43 654.47 491.56 654.47 460 654.47 460 654.47 445.83 654.47 428.62 681.05 422.17 725.5 423.38 763.65 432.45 812.23 457.05 819.12 460 823.21 460 823.21 491.56 823.21 544.43 823.21 579.88 823.21 615.98 823.21 615.98 654.47 579.88 654.47"
         id="polygon63" />
      <polygon
         class="cls-4"
         points="212.12 681.05 194.91 654.47 180.74 654.47 180.74 654.47 149.18 654.47 96.31 654.47 60.86 654.47 24.76 654.47 24.76 823.21 60.86 823.21 96.31 823.21 149.18 823.21 180.74 823.21 180.74 823.21 183.69 819.12 208.29 812.23 217.36 763.65 218.57 725.5 212.12 681.05"
         id="polygon65" />
      <rect
         class="cls-4"
         x="624"
         y="864.49"
         width="400"
         height="159.51"
         id="rect67" />
      <rect
         class="cls-9"
         x="992"
         width="32"
         height="32"
         id="rect69" />
      <rect
         class="cls-10"
         y="139.59"
         width="643"
         height="350.41"
         id="rect71" />
      <ellipse
         class="cls-4"
         cx="320.36"
         cy="746.08"
         rx="73.24"
         ry="132.26"
         id="ellipse73" />
      <ellipse
         class="cls-11"
         cx="165.4193"
         cy="324.46973"
         rx="8.96"
         ry="10.3"
         id="ellipse75"
         transform="rotate(-24.998052)" />
      <ellipse
         class="cls-11"
         cx="400.85788"
         cy="128.87004"
         rx="8.96"
         ry="10.3"
         id="ellipse77"
         transform="rotate(14.345223)" />
      <g
         class="cls-12"
         id="g83">
        <path
           d="M333.81,244.41c-1.57,5.14-6.35,6.87-12,6.87V239.56l9.95,1.59A2.56,2.56,0,0,1,333.81,244.41Z"
           id="path79" />
        <path
           d="M309.84,244.41c1.57,5.14,6.35,6.87,12,6.87V239.56l-9.95,1.59A2.55,2.55,0,0,0,309.84,244.41Z"
           id="path81" />
      </g>
      <rect
         class="cls-14"
         x="992"
         width="32"
         height="32"
         id="rect93" />
      <path
         class="cls-15"
         d="m 271.18468,204.34922 a 5.76,5.76 0 0 1 4.64241,-10.30478 c 7.92296,1.84767 15.19216,3.9425 23.96442,10.88173 a 5.76,5.76 0 1 1 -7.11395,9.05291 c -7.50683,-5.90592 -13.59762,-7.3113 -19.49533,-8.67771 a 5.8,5.8 0 0 1 -1.99755,-0.95215 z"
         id="path95"
         style="fill:#220f0f;fill-opacity:1" />
      <path
         class="cls-15"
         d="m 372.98643,206.59609 a 5.76,5.76 0 0 0 -3.83769,-10.63074 c -8.04142,1.23402 -15.44998,2.76467 -24.72902,9.01004 a 5.76,5.76 0 0 0 6.39803,9.57229 c 7.92946,-5.30711 14.11016,-6.2408 20.10393,-7.15559 a 5.76,5.76 0 0 0 2.06475,-0.796 z"
         id="path97"
         style="fill:#220f0f;fill-opacity:1" />
      <path
         class="cls-16"
         d="M321.62,3.39V156H274.27a34.46,34.46,0,0,0-34,28.64.17.17,0,0,1,0,.07c-.09.45-.15.9-.21,1.35h-.81l6.93,64.32.14,1.33a6.09,6.09,0,0,1-6.05,6.73h-3.12a19.3,19.3,0,0,1-15.62-8c-6.26-8.66-14.95-17.48-18.8-26.29a20.22,20.22,0,0,0-21.69-11.6,6,6,0,0,0-1.84.63l-1.39.74a5.58,5.58,0,0,0-1.64,1.25c-4.27,4.75-10,21.42-18.73,32.95s-53,33.69-69.35,41.06l-29,13.47-.43.19-21,7.87a6,6,0,0,1-1,.28l-25.16,4.87L11,316l-4.11.49A6.2,6.2,0,0,1,0,310.28V9.6A6.21,6.21,0,0,1,6.2,3.39Z"
         id="path99" />
      <path
         class="cls-16"
         d="M321.62,3.39V156H369a34.46,34.46,0,0,1,34,28.64.17.17,0,0,0,0,.07c.09.45.15.9.21,1.35H404l-6.93,64.32-.14,1.33a6.09,6.09,0,0,0,6,6.73h3.12a19.3,19.3,0,0,0,15.62-8c6.26-8.66,14.95-17.48,18.8-26.29a20.22,20.22,0,0,1,21.69-11.6,6,6,0,0,1,1.84.63l1.39.74a5.58,5.58,0,0,1,1.64,1.25c4.27,4.75,9.95,21.42,18.73,32.95s53,33.69,69.35,41.06l29,13.47.43.19,21,7.87a6,6,0,0,0,1,.28l25.16,4.87.45.07,4.11.49a6.2,6.2,0,0,0,6.93-6.16V9.6A6.21,6.21,0,0,0,637,3.39Z"
         id="path101" />
      <path
         class="cls-15"
         d="M240.28,184.73c0-.35.05-.72.1-1.09,0,.34-.06.69-.09,1A.17.17,0,0,1,240.28,184.73Z"
         id="path103" />
      <path
         class="cls-15"
         d="M643.24,6.2V306.88a6.2,6.2,0,0,1-6.93,6.16l-4.11-.48-.45-.07-25.16-4.87a7.08,7.08,0,0,1-1-.28l-21-7.88a3.25,3.25,0,0,1-.43-.18l-29-13.47c-16.39-7.37-60.58-29.56-69.35-41.06s-14.46-28.2-18.73-33a5.73,5.73,0,0,0-1.64-1.24l-1.39-.74a5.74,5.74,0,0,0-1.84-.63,20.21,20.21,0,0,0-21.69,11.6c-3.85,8.81-12.54,17.63-18.8,26.29a19.3,19.3,0,0,1-15.62,8H403a6.09,6.09,0,0,1-5.91-4.67,5.94,5.94,0,0,1-.14-2.07l6.2-57.54c0-.09,0-.19,0-.29h.22c.18-6.55-.26-33-18.33-39.12-2.33-.44-4.83-.86-7.47-1.25h-.65c-7.61,0-9.75,2.57-11.42,5.78s-2.92,7.26-9,9.89c-31.62,13.65-59.81-9.86-88.8-10.43h-1.31c-15.13,0-21.59,9.87-24.3,19.36-.21.7-.39,1.39-.55,2.08-.11.49-.21,1-.31,1.44s-.13.63-.18.94c-.15.79-.27,1.56-.37,2.3,0,.38-.1.74-.14,1.1s-.07.62-.1.92a.76.76,0,0,0,0,.15c0,.37-.08.74-.1,1.09a55.3,55.3,0,0,0-.15,6.06l6.2,57.54a5.94,5.94,0,0,1-.14,2.07,6.09,6.09,0,0,1-5.91,4.67h-3.12a19.3,19.3,0,0,1-15.62-8c-6.26-8.66-14.95-17.48-18.8-26.29a20.21,20.21,0,0,0-21.69-11.6,5.74,5.74,0,0,0-1.84.63l-1.39.74a5.73,5.73,0,0,0-1.64,1.24c-4.27,4.76-10,21.43-18.73,33s-53,33.69-69.35,41.06l-29,13.47a3.25,3.25,0,0,1-.43.18l-21,7.88a7.08,7.08,0,0,1-1,.28l-25.16,4.87-.45.07L6.93,313A6.2,6.2,0,0,1,0,306.88V6.2A6.21,6.21,0,0,1,6.2,0H637A6.21,6.21,0,0,1,643.24,6.2Z"
         id="path105" />
      <rect
         class="cls-17"
         x="643"
         width="381"
         height="134"
         id="rect107" />
      <rect
         class="cls-18"
         x="643"
         y="134"
         width="181"
         height="390"
         id="rect109" />
      <polygon
         class="cls-2"
         points="685.44 439.39 707.95 424.66 745.85 424.66 766.21 445.84 763.57 471.33 735.92 484.58 701.16 478.78 685.44 439.39"
         id="polygon111" />
      <polygon
         class="cls-2"
         points="685.44 264.47 707.95 249.74 745.85 249.74 766.21 270.93 763.57 296.42 735.92 309.66 701.16 303.87 685.44 264.47"
         id="polygon113" />
      <rect
         class="cls-2"
         x="713.32"
         y="395.74"
         width="26.58"
         height="5.41"
         rx="2.7"
         ry="2.7"
         id="rect115" />
      <rect
         class="cls-2"
         x="713.32"
         y="386.11"
         width="26.58"
         height="5.41"
         rx="2.7"
         ry="2.7"
         id="rect117" />
      <rect
         class="cls-2"
         x="713.32"
         y="405.83"
         width="26.58"
         height="5.41"
         rx="2.7"
         ry="2.7"
         id="rect119" />
      <rect
         class="cls-2"
         x="713.32"
         y="221.15"
         width="26.58"
         height="5.41"
         rx="2.7"
         ry="2.7"
         id="rect121" />
      <rect
         class="cls-2"
         x="713.32"
         y="210.84"
         width="26.58"
         height="5.41"
         rx="2.7"
         ry="2.7"
         id="rect123" />
      <rect
         class="cls-2"
         x="713.32"
         y="231.25"
         width="26.58"
         height="5.41"
         rx="2.7"
         ry="2.7"
         id="rect125" />
      <path
         class="cls-19"
         d="M806,315.06l-8.41,15.88-.11,13.64L779,393.74l-11.25,31.05L756,456.55a25.15,25.15,0,0,1-7.8,10.82h0a25.17,25.17,0,0,1-11.82,5.27l-6,1a25.15,25.15,0,0,1-9.7-.34l-4.78-1.11a25.16,25.16,0,0,1-12.13-6.73l-.59-.59a25.08,25.08,0,0,1-5.47-8.21L689.55,437l-11.5-28.5-4-13.8-6-26.11L666.6,353l-.05-26.66h-20.5V483.78l57.24,18H797l13-48,10.5-98.48V319.61Z"
         id="path127" />
      <path
         class="cls-19"
         d="M806,139.59l-8.17,15.88-.12,13.64L779,218.27l-11.25,31L756,281.09a25.15,25.15,0,0,1-7.8,10.82h0a25.15,25.15,0,0,1-11.82,5.26l-6,1a25.14,25.14,0,0,1-9.7-.33l-4.78-1.11A25.32,25.32,0,0,1,703.69,290l-.59-.59a25,25,0,0,1-5.47-8.22l-8.08-19.59-11.5-28.5-4-13.8-6-26.1L666.6,177.5l-.05-26.65h-20.5V308.31l57.24,18H797l13-48,10.5-98.49V144.14Z"
         id="path129" />
      <path
         class="cls-2"
         d="M692.28,330.68l3.64,22.77a23.6,23.6,0,0,0,5.46,11.72l8.31,9.59a23.6,23.6,0,0,0,17.82,8.13h0a23.59,23.59,0,0,0,14.58-5.05l3.43-2.7a23.55,23.55,0,0,0,5.29-5.84l4.8-7.53a23.4,23.4,0,0,0,2.21-4.42L768.42,329H692.28Z"
         id="path131" />
      <path
         class="cls-2"
         d="M692.28,154.72l3.64,22.77a23.6,23.6,0,0,0,5.46,11.72l8.31,9.58a23.58,23.58,0,0,0,17.82,8.14h0a23.59,23.59,0,0,0,14.58-5.05l3.43-2.71a23.37,23.37,0,0,0,5.29-5.84l4.8-7.52a23.79,23.79,0,0,0,2.21-4.43L768.42,153H692.28Z"
         id="path133" />
      <rect
         class="cls-20"
         x="624"
         y="764"
         width="400"
         height="109.12"
         id="rect135" />
      <rect
         class="cls-2"
         x="631.59"
         y="968.54"
         width="383.62"
         height="48.93"
         id="rect137" />
      <rect
         class="cls-19"
         x="631.59"
         y="968.54"
         width="383.62"
         height="6.96"
         id="rect139" />
      <rect
         class="cls-18"
         x="624"
         y="864.42"
         width="400"
         height="8.7"
         id="rect141" />
      <rect
         class="cls-18"
         x="624"
         y="775.88"
         width="400"
         height="26.57"
         id="rect143" />
      <path
         class="cls-21"
         d="M682.15,786.3a48.75,48.75,0,0,1-48.75,48.75V786.3Z"
         id="path145" />
      <path
         class="cls-22"
         d="M770.35,786.3a48.75,48.75,0,0,0,48.75,48.75V786.3Z"
         id="path147" />
      <rect
         class="cls-23"
         x="992"
         width="32"
         height="32"
         id="rect149" />
      <path
         class="cls-20"
         d="M180.74,484.58V1024H460V484.58Zm140.37,346.7c-25.08,0-45.41-54.27-45.41-85.91S296,717,321.11,717s45.4-3.3,45.4,28.33S346.18,831.28,321.11,831.28Z"
         id="path151" />
      <path
         class="cls-24"
         d="M620,654.47V823.21H489.65v26.72l-75.46-7.57h0l-2.14-.21a26.33,26.33,0,0,1-23.67-25c-.12-2.59-.22-5.18-.32-7.78V698.72q.39-9.76.93-19.52a36.56,36.56,0,0,1,34.51-34.5l8.12-.44h0l58-3.16v13.38Z"
         id="path153" />
      <path
         class="cls-24"
         d="M253.42,698.72V810q-.16,4.1-.35,8.18c-.5,10.53-7.15,20.43-16.56,24.18L162,850.82l-.13-27.61H20.76V654.47H161.13l-.08-16.81,46.76,3.93,11.37,1a36.56,36.56,0,0,1,33.19,34.38Q253,687.82,253.42,698.72Z"
         id="path155" />
      <rect
         class="cls-20"
         x="579.98"
         y="654.47"
         width="30.07"
         height="168.74"
         id="rect157" />
      <polygon
         class="cls-25"
         points="431.62 644.25 431.62 644.26 423.5 644.7 431.62 644.25"
         id="polygon159" />
      <path
         class="cls-24"
         d="M366.51,745.37c0,31.64-20.33,85.91-45.4,85.91S275.7,777,275.7,745.37s0-58.33,45.41-58.33S366.51,713.74,366.51,745.37Z"
         id="path161" />
      <path
         class="cls-2"
         d="M321.11,687c-45.41,0-45.41,26.7-45.41,58.33s20.33,85.91,45.41,85.91,45.4-54.27,45.4-85.91S366.51,687,321.11,687Zm0,137.24c-8.19,0-17.83-10.12-25.77-27.06-7.68-16.37-12.64-36.72-12.64-51.85,0-14.73,0-28.65,4.85-37.73,3.12-5.84,10-13.6,33.56-13.6s30.43,7.76,33.55,13.6c4.85,9.08,4.85,23,4.85,37.73,0,15.13-5,35.48-12.64,51.85C338.93,814.16,329.3,824.28,321.11,824.28Z"
         id="path163" />
      <rect
         class="cls-2"
         x="282.35"
         y="905.73"
         width="77.51"
         height="77.51"
         rx="11.58"
         ry="11.58"
         id="rect165" />
      <rect
         class="cls-20"
         x="292.07"
         y="962.46"
         width="58.06"
         height="8.14"
         rx="2.53"
         ry="2.53"
         id="rect167" />
      <rect
         class="cls-20"
         x="292.07"
         y="917.06"
         width="17.25"
         height="8.14"
         rx="1.92"
         ry="1.92"
         id="rect169" />
      <rect
         class="cls-20"
         x="314.68"
         y="917.06"
         width="35.46"
         height="8.14"
         rx="1.92"
         ry="1.92"
         id="rect171" />
      <rect
         class="cls-2"
         x="292.07"
         y="586.23"
         width="58.06"
         height="58.06"
         rx="8.67"
         ry="8.67"
         transform="translate(642.21 1230.53) rotate(180)"
         id="rect173" />
      <rect
         class="cls-20"
         x="299.36"
         y="595.71"
         width="43.49"
         height="6.1"
         rx="1.89"
         ry="1.89"
         transform="translate(642.21 1197.51) rotate(180)"
         id="rect175" />
      <rect
         class="cls-20"
         x="329.93"
         y="629.71"
         width="12.92"
         height="6.1"
         rx="1.44"
         ry="1.44"
         transform="translate(672.78 1265.51) rotate(180)"
         id="rect177" />
      <rect
         class="cls-20"
         x="299.36"
         y="629.71"
         width="26.56"
         height="6.1"
         rx="1.44"
         ry="1.44"
         transform="translate(625.28 1265.51) rotate(180)"
         id="rect179" />
      <rect
         class="cls-20"
         x="30.87"
         y="654.47"
         width="29.89"
         height="168.74"
         id="rect181" />
      <path
         class="cls-18"
         d="M30.87,654.47V823.21H60.76V654.47ZM53.76,816.21H37.87V661.47H53.76Z"
         id="path183" />
      <path
         class="cls-18"
         d="M580,654.47V823.21h30.07V654.47Zm23.07,161.74H587V661.47h16.07Z"
         id="path185" />
      <path
         class="cls-2"
         d="M406.31,1006.3H386.62a2083.85,2083.85,0,0,1,0-504.11h19.69A1364.49,1364.49,0,0,0,406.31,1006.3Z"
         id="path187" />
      <path
         class="cls-2"
         d="M270.17,754.24a2082,2082,0,0,1-15.3,252.06H235.19a1364.49,1364.49,0,0,0,0-504.11h19.68A2082,2082,0,0,1,270.17,754.24Z"
         id="path189" />
      <rect
         class="cls-18"
         x="180.74"
         y="997.3"
         width="279.26"
         height="26.7"
         id="rect191" />
      <rect
         class="cls-18"
         x="180.74"
         y="484.58"
         width="279.26"
         height="23.16"
         id="rect193" />
      <path
         class="cls-26"
         d="M480,641.62V849l-65.81-6.6h0l-2.14-.21a26.33,26.33,0,0,1-23.67-25c-.12-2.59-.22-5.18-.32-7.78V698.72q.39-9.76.93-19.52a36.56,36.56,0,0,1,34.51-34.5l8.12-.44h0Z"
         id="path195" />
      <path
         class="cls-26"
         d="M253.42,698.72V810q-.16,4.1-.35,8.18c-.5,10.53-7.15,20.43-16.56,24.18L162,850.82l-.13-27.61h-1.15V654.47h.39l-.08-16.81,46.76,3.93,11.37,1a36.56,36.56,0,0,1,33.19,34.38Q253,687.82,253.42,698.72Z"
         id="path197" />
      <rect
         class="cls-27"
         x="152.9"
         y="625.7"
         width="7.84"
         height="246.27"
         id="rect199" />
      <rect
         class="cls-27"
         x="480"
         y="625.7"
         width="7.84"
         height="246.27"
         id="rect201" />
      <g
         class="cls-12"
         id="g207">
        <rect
           x="145.05"
           y="625.7"
           width="7.84"
           height="246.27"
           transform="translate(297.95 1497.67) rotate(-180)"
           id="rect203" />
        <rect
           x="487.78"
           y="625.7"
           width="7.84"
           height="246.27"
           transform="translate(983.4 1497.67) rotate(-180)"
           id="rect205" />
      </g>
      <path
         class="cls-26"
         d="M366.5,746.29c-.38,31.76-20.56,85-45.39,85-23.12,0-42.2-46.12-45.05-78.12l5.36,16.35,6.94,13.23c13.82,26.35,51.74,25.79,64.76-1l6-12.32Z"
         id="path209" />
      <path
         class="cls-26"
         d="M366.51,743.47l-5.16-21.68-24-3.65-16.72-1.22L303,718.14l-24,3.65-3.2,13.46c.48-27,4.88-48.21,45.35-48.21C365.6,687,366.49,712.68,366.51,743.47Z"
         id="path211" />
      <path
         class="cls-2"
         d="M321.11,687c-45.41,0-45.41,26.7-45.41,58.33s20.33,85.91,45.41,85.91,45.4-54.27,45.4-85.91S366.51,687,321.11,687Zm0,137.24c-8.19,0-17.83-10.12-25.77-27.06-7.68-16.37-12.64-36.72-12.64-51.85,0-14.73,0-28.65,4.85-37.73,3.12-5.84,10-13.6,33.56-13.6s30.43,7.76,33.55,13.6c4.85,9.08,4.85,23,4.85,37.73,0,15.13-5,35.48-12.64,51.85C338.93,814.16,329.3,824.28,321.11,824.28Z"
         id="path213" />
      <path
         class="cls-12"
         d="m 340.47691,257.08635 c 0,0 -29.15355,3.14528 -32.25176,9.96959"
         id="path82"
         style="opacity:0.25;mix-blend-mode:overlay;fill:none;stroke:#000000;stroke-width:5px;stroke-linecap:round;stroke-miterlimit:10" />
    </g>
    <g
       id="Gradient_Overlay"
       data-name="Gradient Overlay">
      <rect
         class="cls-28"
         x="992"
         width="32"
         height="32"
         id="rect216" />
      <rect
         class="cls-29"
         x="15.67"
         y="494.89"
         width="600.31"
         height="511.91"
         rx="161.43"
         ry="161.43"
         id="rect218" />
      <rect
         class="cls-30"
         x="624"
         y="764"
         width="400"
         height="260"
         id="rect220" />
      <rect
         class="cls-31"
         x="826.3"
         y="147.59"
         width="181.7"
         height="363.24"
         id="rect222" />
    </g>
  </g>
</svg>
