<?xml version="1.0" encoding="UTF-8" standalone="no"?>
<svg
   xmlns:dc="http://purl.org/dc/elements/1.1/"
   xmlns:cc="http://creativecommons.org/ns#"
   xmlns:rdf="http://www.w3.org/1999/02/22-rdf-syntax-ns#"
   xmlns:svg="http://www.w3.org/2000/svg"
   xmlns="http://www.w3.org/2000/svg"
   xmlns:xlink="http://www.w3.org/1999/xlink"
   xmlns:sodipodi="http://sodipodi.sourceforge.net/DTD/sodipodi-0.dtd"
   xmlns:inkscape="http://www.inkscape.org/namespaces/inkscape"
   viewBox="0 0 1024 1024"
   version="1.1"
   id="svg167"
   sodipodi:docname="businessMaleB_angry.svg"
   inkscape:version="1.0 (9f2f71dc58, 2020-08-02)">
  <metadata
     id="metadata171">
    <rdf:RDF>
      <cc:Work
         rdf:about="">
        <dc:format>image/svg+xml</dc:format>
        <dc:type
           rdf:resource="http://purl.org/dc/dcmitype/StillImage" />
      </cc:Work>
    </rdf:RDF>
  </metadata>
  <sodipodi:namedview
     pagecolor="#ffffff"
     bordercolor="#666666"
     borderopacity="1"
     objecttolerance="10"
     gridtolerance="10"
     guidetolerance="10"
     inkscape:pageopacity="0"
     inkscape:pageshadow="2"
     inkscape:window-width="1920"
     inkscape:window-height="1052"
     id="namedview169"
     showgrid="false"
     inkscape:zoom="2.0301699"
     inkscape:cx="233.75829"
     inkscape:cy="259.74024"
     inkscape:window-x="1920"
     inkscape:window-y="0"
     inkscape:window-maximized="1"
     inkscape:current-layer="Layer_1-2" />
  <defs
     id="defs21">
    <style
       id="style2">.cls-1{isolation:isolate;}.cls-2{fill:#fff;}.cls-3{fill:#87221a;}.cls-25,.cls-4{opacity:0.15;}.cls-10,.cls-12,.cls-13,.cls-25,.cls-26,.cls-27,.cls-4{mix-blend-mode:overlay;}.cls-4{fill:url(#linear-gradient);}.cls-5{fill:#771b14;}.cls-6{fill:red;}.cls-7{fill:url(#linear-gradient-2);}.cls-8{fill:#61150d;}.cls-9{fill:#4d160e;}.cls-10{opacity:0.1;}.cls-11{fill:#202020;}.cls-12,.cls-13,.cls-26,.cls-27{opacity:0.25;}.cls-12{fill:url(#linear-gradient-3);}.cls-13{fill:url(#linear-gradient-4);}.cls-14{fill:#19090c;}.cls-15{fill:#d4eef4;}.cls-16{fill:#badde2;}.cls-17{fill:#d22227;}.cls-18{fill:#bcdce1;}.cls-19{fill:#d3eef4;}.cls-20{fill:#2b2b2b;}.cls-21{fill:#abbfcf;}.cls-22{fill:url(#linear-gradient-5);}.cls-23{fill:lime;}.cls-24{fill:#220f0f;}.cls-27{fill:none;stroke:#000;stroke-linecap:round;stroke-miterlimit:10;stroke-width:5px;}.cls-28{fill:blue;}</style>
    <linearGradient
       id="linear-gradient"
       x1="321.68"
       y1="286"
       x2="321.68"
       y2="431.12"
       gradientUnits="userSpaceOnUse">
      <stop
         offset="0"
         id="stop4" />
      <stop
         offset="1"
         stop-opacity="0"
         id="stop6" />
    </linearGradient>
    <linearGradient
       id="linear-gradient-2"
       x1="824"
       y1="1024"
       x2="824"
       y2="764"
       gradientUnits="userSpaceOnUse">
      <stop
         offset="0"
         stop-color="#2b2b2b"
         id="stop9" />
      <stop
         offset="1"
         stop-color="#202020"
         id="stop11" />
    </linearGradient>
    <linearGradient
       id="linear-gradient-3"
       x1="657.77"
       y1="835.05"
       x2="657.77"
       y2="786.3"
       gradientUnits="userSpaceOnUse">
      <stop
         offset="0"
         stop-opacity="0"
         id="stop14" />
      <stop
         offset="1"
         id="stop16" />
    </linearGradient>
    <linearGradient
       id="linear-gradient-4"
       x1="794.72"
       y1="835.05"
       x2="794.72"
       y2="786.3"
       xlink:href="#linear-gradient-3" />
    <linearGradient
       id="linear-gradient-5"
       x1="268.75"
       y1="995.49"
       x2="342.3"
       y2="996.45"
       xlink:href="#linear-gradient-3" />
  </defs>
  <title
     id="title23">businessMaleB</title>
  <g
     class="cls-1"
     id="g165">
    <g
       id="Layer_2"
       data-name="Layer 2">
      <g
         id="Layer_1-2"
         data-name="Layer 1">
        <rect
           class="cls-2"
           width="1024"
           height="1024"
           id="rect25" />
        <rect
           class="cls-3"
           x="624"
           y="524"
           width="400"
           height="240"
           id="rect27" />
        <rect
           class="cls-3"
           width="643"
           height="490"
           id="rect29" />
        <rect
           class="cls-3"
           x="824"
           y="134"
           width="200"
           height="390"
           id="rect31" />
        <path
           class="cls-4"
           d="M366,299h0a89.81,89.81,0,0,0-19.13,2.07h0a89.33,89.33,0,0,1-19.14,2.07H315.59a89.26,89.26,0,0,1-19.14-2.07h0A89.81,89.81,0,0,0,277.32,299h0a43.74,43.74,0,0,0-33,15c-6.51,7.48-12.32,16.72-11.37,25.21l15.3,137,71.88,5.58,1.52-2.82,1.52,2.82,71.87-5.58,15.31-137c.95-8.49-4.86-17.73-11.38-25.21A43.71,43.71,0,0,0,366,299Z"
           id="path33" />
        <path
           class="cls-5"
           d="M442.55,216.37h8.29a18.41,18.41,0,0,1,18.41,18.41v1.43a18.41,18.41,0,0,1-18.41,18.41h-8.29a0,0,0,0,1,0,0V216.37A0,0,0,0,1,442.55,216.37Z"
           id="path35" />
        <path
           class="cls-3"
           d="M437.85,216.37h8.29a18.41,18.41,0,0,1,18.41,18.41v1.43a18.41,18.41,0,0,1-18.41,18.41h-8.29a0,0,0,0,1,0,0V216.37A0,0,0,0,1,437.85,216.37Z"
           id="path37" />
        <ellipse
           class="cls-5"
           cx="451.21"
           cy="235.5"
           rx="7.93"
           ry="4.4"
           transform="translate(132.36 632.21) rotate(-78.77)"
           id="ellipse39" />
        <path
           class="cls-5"
           d="M173.56,216.37h8.29a18.41,18.41,0,0,1,18.41,18.41v1.43a18.41,18.41,0,0,1-18.41,18.41h-8.29a0,0,0,0,1,0,0V216.37a0,0,0,0,1,0,0Z"
           transform="translate(373.83 471) rotate(-180)"
           id="path41" />
        <path
           class="cls-3"
           d="M178.26,216.37h8.29A18.41,18.41,0,0,1,205,234.78v1.43a18.41,18.41,0,0,1-18.41,18.41h-8.29a0,0,0,0,1,0,0V216.37a0,0,0,0,1,0,0Z"
           transform="translate(383.22 471) rotate(-180)"
           id="path43" />
        <ellipse
           class="cls-5"
           cx="191.61"
           cy="235.5"
           rx="4.4"
           ry="7.93"
           transform="translate(-42.19 41.82) rotate(-11.23)"
           id="ellipse45" />
        <polygon
           class="cls-3"
           points="579.88 654.47 544.43 654.47 491.56 654.47 460 654.47 460 654.47 445.83 654.47 428.62 681.05 422.17 725.5 423.38 763.65 432.45 812.23 457.05 819.12 460 823.21 460 823.21 491.56 823.21 544.43 823.21 579.88 823.21 615.98 823.21 615.98 654.47 579.88 654.47"
           id="polygon47" />
        <polygon
           class="cls-3"
           points="194.91 654.47 180.74 654.47 180.74 654.47 149.18 654.47 96.31 654.47 60.86 654.47 24.76 654.47 24.76 823.21 60.86 823.21 96.31 823.21 149.18 823.21 180.74 823.21 180.74 823.21 183.69 819.12 208.29 812.23 217.36 763.65 218.57 725.5 212.12 681.05 194.91 654.47"
           id="polygon49" />
        <rect
           class="cls-3"
           x="624"
           y="864.49"
           width="400"
           height="159.51"
           id="rect51" />
        <rect
           class="cls-6"
           x="992"
           width="32"
           height="32"
           id="rect53" />
        <ellipse
           class="cls-3"
           cx="320.36"
           cy="746.08"
           rx="73.24"
           ry="132.26"
           id="ellipse55" />
        <rect
           class="cls-7"
           x="624"
           y="764"
           width="400"
           height="260"
           id="rect57" />
        <rect
           class="cls-8"
           x="653.6"
           y="141.89"
           width="156.93"
           height="355.73"
           id="rect59" />
        <rect
           class="cls-9"
           x="713.32"
           y="386.11"
           width="26.58"
           height="5.41"
           rx="2.7"
           ry="2.7"
           id="rect61" />
        <rect
           class="cls-9"
           x="713.32"
           y="210.84"
           width="26.58"
           height="5.41"
           rx="2.7"
           ry="2.7"
           id="rect63" />
        <path
           class="cls-9"
           d="M806,315.06l-8.41,15.88-.11,13.64L779,393.74l-11.25,31.05L756,456.55a25.15,25.15,0,0,1-7.8,10.82h0a25.17,25.17,0,0,1-11.82,5.27l-6,1a25.15,25.15,0,0,1-9.7-.34l-4.78-1.11a25.16,25.16,0,0,1-12.13-6.73l-.59-.59a25.08,25.08,0,0,1-5.47-8.21L689.55,437l-11.5-28.5-4-13.8-6-26.11L666.6,353l-.05-26.66h-20.5V483.78l57.24,18H797l13-48,10.5-98.48V319.61Z"
           id="path65" />
        <path
           class="cls-9"
           d="M806,139.59l-8.17,15.88-.12,13.64L779,218.27l-11.25,31L756,281.09a25.15,25.15,0,0,1-7.8,10.82h0a25.15,25.15,0,0,1-11.82,5.26l-6,1a25.14,25.14,0,0,1-9.7-.33l-4.78-1.11A25.32,25.32,0,0,1,703.69,290l-.59-.59a25,25,0,0,1-5.47-8.22l-8.08-19.59-11.5-28.5-4-13.8-6-26.1L666.6,177.5l-.05-26.65h-20.5V308.31l57.24,18H797l13-48,10.5-98.49V144.14Z"
           id="path67" />
        <rect
           class="cls-10"
           x="631.59"
           y="786.3"
           width="383.62"
           height="16.15"
           id="rect69" />
        <path
           class="cls-11"
           d="M692.28,330.68l3.64,22.77a23.6,23.6,0,0,0,5.46,11.72l8.31,9.59a23.6,23.6,0,0,0,17.82,8.13h0a23.59,23.59,0,0,0,14.58-5.05l3.43-2.7a23.55,23.55,0,0,0,5.29-5.84l4.8-7.53a23.4,23.4,0,0,0,2.21-4.42L768.42,329H692.28Z"
           id="path71" />
        <path
           class="cls-11"
           d="M692.28,154.72l3.64,22.77a23.6,23.6,0,0,0,5.46,11.72l8.31,9.58a23.58,23.58,0,0,0,17.82,8.14h0a23.59,23.59,0,0,0,14.58-5.05l3.43-2.71a23.37,23.37,0,0,0,5.29-5.84l4.8-7.52a23.79,23.79,0,0,0,2.21-4.43L768.42,153H692.28Z"
           id="path73" />
        <path
           class="cls-12"
           d="M682.15,786.3a48.75,48.75,0,0,1-48.75,48.75V786.3Z"
           id="path75" />
        <path
           class="cls-13"
           d="M770.35,786.3a48.75,48.75,0,0,0,48.75,48.75V786.3Z"
           id="path77" />
        <rect
           class="cls-14"
           x="643"
           width="381"
           height="134"
           id="rect79" />
        <polygon
           class="cls-2"
           points="631.59 442.27 631.59 491.69 9.43 491.69 9.43 442.27 321.68 442.27 321.5 481.54 321.32 442.27 631.59 442.27"
           id="polygon81" />
        <polygon
           class="cls-15"
           points="394.39 481.86 248.61 481.86 321.32 442.46 321.5 442.37 321.68 442.46 394.39 481.86"
           id="polygon83" />
        <polygon
           class="cls-16"
           points="321.32 442.27 321.5 442.37 321.32 442.46 321.32 442.27"
           id="polygon85" />
        <polygon
           class="cls-16"
           points="321.68 442.27 321.68 442.46 321.5 442.37 321.68 442.27"
           id="polygon87" />
        <polygon
           class="cls-17"
           points="321.5 442.27 285.2 466.74 321.5 485.5 357.8 466.74 321.5 442.27"
           id="polygon89" />
        <polygon
           class="cls-18"
           points="296.23 764.88 292.74 744.37 298.32 724.85 310.9 721.85 320.76 720.78 330.07 721.85 342.66 724.85 348.24 744.37 344.88 764.86 321.36 774.13 296.23 764.88"
           id="polygon91" />
        <path
           class="cls-11"
           d="M320.76,722.79l9,1,11.33,2.71,5.13,18-3.1,18.93L321.33,772,298,763.41l-3.21-18.93,5.13-18,11.32-2.71,9.52-1m0-4-10.21,1.1-13.84,3.31-6,21.07,3.75,22.11,26.93,9.91,25.29-10,3.61-22.06-6-21.07-13.85-3.31-9.65-1.1Z"
           id="path93" />
        <rect
           class="cls-19"
           x="11.73"
           y="654.41"
           width="212.47"
           height="188.74"
           transform="translate(235.93 1497.55) rotate(-180)"
           id="rect95" />
        <rect
           class="cls-19"
           x="416.54"
           y="654.41"
           width="199.44"
           height="188.74"
           transform="translate(1032.52 1497.55) rotate(-180)"
           id="rect97" />
        <rect
           class="cls-20"
           x="41.66"
           y="511.94"
           width="557.42"
           height="488.55"
           id="rect99" />
        <rect
           class="cls-20"
           y="495.62"
           width="629.1"
           height="22.13"
           id="rect101" />
        <rect
           class="cls-2"
           x="27.9"
           y="654.41"
           width="7.84"
           height="188.74"
           id="rect103" />
        <rect
           class="cls-2"
           x="605"
           y="654.41"
           width="7.84"
           height="188.74"
           id="rect105" />
        <polygon
           class="cls-2"
           points="294.45 766.36 321.38 966.47 346.67 766.31 321.44 736.33 294.45 766.36"
           id="polygon107" />
        <polygon
           class="cls-15"
           points="340.42 727.12 328.81 724.35 320.72 723.42 312.17 724.35 300.56 727.12 295.52 744.78 298.66 763.31 321.24 771.62 342.43 763.27 345.46 744.78 340.42 727.12"
           id="polygon109" />
        <polygon
           class="cls-17"
           points="325.31 762.11 317.56 762.11 293.59 948.92 321.44 974.61 349.28 948.92 325.31 762.11"
           id="polygon111" />
        <polygon
           class="cls-20"
           points="307.14 873.11 320.37 929.18 336.5 870.56 367.93 870.56 367.93 979.32 261.31 979.32 268.21 864.34 307.14 873.11"
           id="polygon113" />
        <rect
           class="cls-11"
           y="984.61"
           width="629.1"
           height="22.13"
           id="rect115" />
        <path
           class="cls-21"
           d="M328.86,985.89H314a4.62,4.62,0,0,0-4.62,4.62v8a4.62,4.62,0,0,0,4.62,4.62h14.85a4.62,4.62,0,0,0,4.62-4.62v-8A4.62,4.62,0,0,0,328.86,985.89ZM331,998.1a2.39,2.39,0,0,1-2.38,2.39H314.21a2.39,2.39,0,0,1-2.38-2.39v-7.23a2.39,2.39,0,0,1,2.38-2.39h14.45a2.39,2.39,0,0,1,2.38,2.39Z"
           id="path117" />
        <rect
           class="cls-21"
           x="316.41"
           y="987.71"
           width="3.22"
           height="13.54"
           id="rect119" />
        <path
           class="cls-21"
           d="M318,987.71h0a1.61,1.61,0,0,1,1.61,1.61v11.93a0,0,0,0,1,0,0h-3.22a0,0,0,0,1,0,0V989.33a1.61,1.61,0,0,1,1.61-1.61Z"
           transform="translate(1312.51 676.46) rotate(90)"
           id="path121" />
        <polygon
           class="cls-22"
           points="300.83 984.5 276.95 993.77 303.83 1006.7 253.77 1006.7 259.88 984.5 300.83 984.5"
           id="polygon123" />
        <polygon
           class="cls-11"
           points="346.78 765.78 319.9 931.23 360.48 823.35 349.68 814.07 365.33 800.02 346.78 765.78"
           id="polygon125" />
        <polygon
           class="cls-11"
           points="295.14 765.78 320.52 929.89 277.19 823.58 287.67 814.09 271.56 800.37 295.14 765.78"
           id="polygon127" />
        <polygon
           class="cls-20"
           points="365.33 958.57 365.33 966.47 396.05 1013.85 599.08 1013.85 599.08 958.57 365.33 958.57"
           id="polygon129" />
        <polygon
           class="cls-20"
           points="275.41 958.57 275.41 966.47 244.69 1013.85 41.66 1013.85 41.66 958.57 275.41 958.57"
           id="polygon131" />
        <rect
           class="cls-23"
           x="992"
           width="32"
           height="32"
           id="rect133" />
        <ellipse
           class="cls-24"
           cx="291.04"
           cy="220.5"
           rx="8.96"
           ry="9.35"
           id="ellipse135" />
        <ellipse
           class="cls-24"
           cx="352.43"
           cy="220.5"
           rx="8.96"
           ry="9.35"
           id="ellipse137" />
        <path
           class="cls-25"
           d="M321.62,3.39V156H274.27a34.46,34.46,0,0,0-34,28.64.17.17,0,0,1,0,.07c-.09.45-.15.9-.21,1.35h-.81l6.93,64.32.14,1.33a6.09,6.09,0,0,1-6.05,6.73h-3.12a19.3,19.3,0,0,1-15.62-8c-6.26-8.66-14.95-17.48-18.8-26.29a20.22,20.22,0,0,0-21.69-11.6,6,6,0,0,0-1.84.63l-1.39.74a5.58,5.58,0,0,0-1.64,1.25c-4.27,4.75-10,21.42-18.73,32.95s-53,33.69-69.35,41.06l-29,13.47-.43.19-21,7.87a6,6,0,0,1-1,.28l-25.16,4.87L11,316l-4.11.49A6.2,6.2,0,0,1,0,310.28V9.6A6.21,6.21,0,0,1,6.2,3.39Z"
           id="path139" />
        <path
           class="cls-24"
           d="M321.62,0V163.71h-7.07c-19.17,0-19.7-5.71-35.75-7.69a100.93,100.93,0,0,0-12.46-.67c-20.78,0-25.21,18.63-26,29.31a.17.17,0,0,1,0,.07,55.3,55.3,0,0,0-.15,6.06l6.2,57.54a5.94,5.94,0,0,1-.14,2.07,6.09,6.09,0,0,1-5.91,4.67h-3.12a19.3,19.3,0,0,1-15.62-8c-6.26-8.66-14.95-17.48-18.8-26.29a20.21,20.21,0,0,0-21.69-11.6,5.74,5.74,0,0,0-1.84.63l-1.39.74a5.73,5.73,0,0,0-1.64,1.24c-4.27,4.76-10,21.43-18.73,33s-53,33.69-69.35,41.06l-29,13.47a3.25,3.25,0,0,1-.43.18l-21,7.88a7.08,7.08,0,0,1-1,.28l-25.16,4.87-.45.07L6.93,313A6.2,6.2,0,0,1,0,306.88V6.2A6.21,6.21,0,0,1,6.2,0Z"
           id="path141" />
        <path
           class="cls-25"
           d="M321.62,3.39V156H369a34.46,34.46,0,0,1,34,28.64.17.17,0,0,0,0,.07c.09.45.15.9.21,1.35H404l-6.93,64.32-.14,1.33a6.09,6.09,0,0,0,6,6.73h3.12a19.3,19.3,0,0,0,15.62-8c6.26-8.66,14.95-17.48,18.8-26.29a20.22,20.22,0,0,1,21.69-11.6,6,6,0,0,1,1.84.63l1.39.74a5.58,5.58,0,0,1,1.64,1.25c4.27,4.75,9.95,21.42,18.73,32.95s53,33.69,69.35,41.06l29,13.47.43.19,21,7.87a6,6,0,0,0,1,.28l25.16,4.87.45.07,4.11.49a6.2,6.2,0,0,0,6.93-6.16V9.6A6.21,6.21,0,0,0,637,3.39Z"
           id="path143" />
        <path
           class="cls-24"
           d="M321.62,0V163.71h7.07c19.17,0,19.7-5.71,35.75-7.69a100.93,100.93,0,0,1,12.46-.67c20.78,0,25.21,18.63,26.05,29.31a.17.17,0,0,0,0,.07,55.3,55.3,0,0,1,.15,6.06l-6.2,57.54a5.94,5.94,0,0,0,.14,2.07,6.09,6.09,0,0,0,5.91,4.67h3.12a19.3,19.3,0,0,0,15.62-8c6.26-8.66,14.95-17.48,18.8-26.29a20.21,20.21,0,0,1,21.69-11.6,5.74,5.74,0,0,1,1.84.63l1.39.74a5.73,5.73,0,0,1,1.64,1.24c4.27,4.76,9.95,21.43,18.73,33s53,33.69,69.35,41.06l29,13.47a3.25,3.25,0,0,0,.43.18l21,7.88a7.08,7.08,0,0,0,1,.28l25.16,4.87.45.07,4.11.48a6.2,6.2,0,0,0,6.93-6.16V6.2A6.21,6.21,0,0,0,637,0Z"
           id="path145" />
        <path
           class="cls-24"
           d="m 372.77327,211.06763 a 47,47 0 0 0 -31.64665,7.31864 c -1.83743,1.24847 -2.88346,-1.451 -1.27497,-3.26133 a 56,56 0 0 1 18.54631,-13.51429 c 5.47217,-2.51115 12.49534,1.45462 15.5199,7.38876 0.55713,1.15109 0.0193,2.1151 -1.14459,2.06822 z"
           id="path147" />
        <path
           class="cls-24"
           d="m 270.66014,210.77018 a 46.92,46.92 0 0 1 31.50768,7.85425 c 1.81589,1.27959 2.91743,-1.39914 1.34003,-3.23661 a 56,56 0 0 0 -18.28433,-13.82075 c -5.4286,-2.60402 -12.51832,1.24152 -15.64354,7.12327 -0.6057,1.13385 -0.094,2.10436 1.08016,2.07984 z"
           id="path149" />
        <g
           class="cls-26"
           id="g155">
          <path
             d="M334.56,238.78c-1.57,5.14-6.35,6.88-12,6.88V233.94l9.95,1.59A2.55,2.55,0,0,1,334.56,238.78Z"
             id="path151" />
          <path
             d="M310.59,238.78c1.57,5.14,6.34,6.88,12,6.88V233.94l-9.94,1.59A2.54,2.54,0,0,0,310.59,238.78Z"
             id="path153" />
        </g>
        <path
           class="cls-25"
           d="M322.48,271.44a5.89,5.89,0,0,0-3.69,2.09,2.54,2.54,0,0,0,2.36,4.11l4.43-.66a2.55,2.55,0,0,0,1.05-4.63A5.89,5.89,0,0,0,322.48,271.44Z"
           id="path157" />
        <path
           class="cls-27"
           d="m 341.8881,257.89058 c -11.06952,-2.78104 -29.48919,0.73181 -33.85853,6.82106"
           id="path159"
           sodipodi:nodetypes="cc" />
        <rect
           class="cls-28"
           x="992"
           width="32"
           height="32"
           id="rect161" />
      </g>
    </g>
  </g>
</svg>
