<?xml version="1.0" encoding="UTF-8" standalone="no"?>
<svg
   xmlns:dc="http://purl.org/dc/elements/1.1/"
   xmlns:cc="http://creativecommons.org/ns#"
   xmlns:rdf="http://www.w3.org/1999/02/22-rdf-syntax-ns#"
   xmlns:svg="http://www.w3.org/2000/svg"
   xmlns="http://www.w3.org/2000/svg"
   xmlns:xlink="http://www.w3.org/1999/xlink"
   xmlns:sodipodi="http://sodipodi.sourceforge.net/DTD/sodipodi-0.dtd"
   xmlns:inkscape="http://www.inkscape.org/namespaces/inkscape"
   viewBox="0 0 1024 1024"
   version="1.1"
   id="svg192"
   sodipodi:docname="casualFemaleA_happy.svg"
   inkscape:version="1.0 (9f2f71dc58, 2020-08-02)">
  <metadata
     id="metadata196">
    <rdf:RDF>
      <cc:Work
         rdf:about="">
        <dc:format>image/svg+xml</dc:format>
        <dc:type
           rdf:resource="http://purl.org/dc/dcmitype/StillImage" />
      </cc:Work>
    </rdf:RDF>
  </metadata>
  <sodipodi:namedview
     pagecolor="#ffffff"
     bordercolor="#666666"
     borderopacity="1"
     objecttolerance="10"
     gridtolerance="10"
     guidetolerance="10"
     inkscape:pageopacity="0"
     inkscape:pageshadow="2"
     inkscape:window-width="1920"
     inkscape:window-height="1052"
     id="namedview194"
     showgrid="false"
     inkscape:zoom="2.8710938"
     inkscape:cx="304.56051"
     inkscape:cy="278.09994"
     inkscape:window-x="1920"
     inkscape:window-y="0"
     inkscape:window-maximized="1"
     inkscape:current-layer="Layer_1-2"
     inkscape:document-rotation="0" />
  <defs
     id="defs38">
    <style
       id="style2">.cls-1{isolation:isolate;}.cls-2{fill:#fff;}.cls-3{fill:#87221a;}.cls-4,.cls-7{opacity:0.15;}.cls-16,.cls-17,.cls-22,.cls-23,.cls-4,.cls-7{mix-blend-mode:overlay;}.cls-4{fill:url(#linear-gradient);}.cls-5{fill:#771b14;}.cls-6{fill:red;}.cls-8{fill:#220f0f;}.cls-9{fill:blue;}.cls-10{fill:#ba2246;}.cls-11{fill:#e97424;}.cls-12{fill:#febe40;}.cls-13{fill:#ccdde7;}.cls-14{fill:#f2673a;}.cls-15{fill:#e54325;}.cls-16,.cls-17,.cls-23{opacity:0.25;}.cls-16{fill:url(#linear-gradient-2);}.cls-17{fill:url(#linear-gradient-3);}.cls-18{fill:#fad87c;}.cls-19{fill:url(#linear-gradient-4);}.cls-20{fill:#abbfcf;}.cls-21{fill:url(#radial-gradient);}.cls-22{fill:url(#linear-gradient-5);}.cls-24{opacity:0.5;}.cls-25{fill:lime;}</style>
    <linearGradient
       id="linear-gradient"
       x1="321.68"
       y1="286"
       x2="321.68"
       y2="431.12"
       gradientUnits="userSpaceOnUse">
      <stop
         offset="0"
         id="stop4" />
      <stop
         offset="1"
         stop-opacity="0"
         id="stop6" />
    </linearGradient>
    <linearGradient
       id="linear-gradient-2"
       x1="657.77"
       y1="835.05"
       x2="657.77"
       y2="786.3"
       gradientUnits="userSpaceOnUse">
      <stop
         offset="0"
         stop-opacity="0"
         id="stop9" />
      <stop
         offset="1"
         id="stop11" />
    </linearGradient>
    <linearGradient
       id="linear-gradient-3"
       x1="794.72"
       y1="835.05"
       x2="794.72"
       y2="786.3"
       xlink:href="#linear-gradient-2" />
    <linearGradient
       id="linear-gradient-4"
       x1="258.3"
       y1="987.83"
       x2="316.29"
       y2="987.64"
       xlink:href="#linear-gradient-2" />
    <radialGradient
       id="radial-gradient"
       cx="321.11"
       cy="871.96"
       r="84.19"
       gradientTransform="translate(0 316.77) scale(1 0.64)"
       gradientUnits="userSpaceOnUse">
      <stop
         offset="0"
         stop-color="#badde2"
         id="stop16" />
      <stop
         offset="0.17"
         stop-color="#badde2"
         stop-opacity="0.99"
         id="stop18" />
      <stop
         offset="0.31"
         stop-color="#badde2"
         stop-opacity="0.94"
         id="stop20" />
      <stop
         offset="0.43"
         stop-color="#badde2"
         stop-opacity="0.87"
         id="stop22" />
      <stop
         offset="0.55"
         stop-color="#badde2"
         stop-opacity="0.76"
         id="stop24" />
      <stop
         offset="0.67"
         stop-color="#badde2"
         stop-opacity="0.62"
         id="stop26" />
      <stop
         offset="0.78"
         stop-color="#badde2"
         stop-opacity="0.45"
         id="stop28" />
      <stop
         offset="0.88"
         stop-color="#badde2"
         stop-opacity="0.25"
         id="stop30" />
      <stop
         offset="0.99"
         stop-color="#badde2"
         stop-opacity="0.03"
         id="stop32" />
      <stop
         offset="1"
         stop-color="#badde2"
         stop-opacity="0"
         id="stop34" />
    </radialGradient>
    <linearGradient
       id="linear-gradient-5"
       x1="320.89"
       y1="903.7"
       x2="320.89"
       y2="869.42"
       xlink:href="#linear-gradient-2" />
  </defs>
  <title
     id="title40">casualFemaleA</title>
  <g
     class="cls-1"
     id="g190">
    <g
       id="Layer_2"
       data-name="Layer 2">
      <g
         id="Layer_1-2"
         data-name="Layer 1">
        <rect
           class="cls-2"
           width="1024"
           height="1024"
           id="rect42" />
        <rect
           class="cls-3"
           x="624"
           y="524"
           width="400"
           height="240"
           id="rect44" />
        <rect
           class="cls-3"
           width="643"
           height="490"
           id="rect46" />
        <rect
           class="cls-3"
           x="824"
           y="134"
           width="200"
           height="390"
           id="rect48" />
        <path
           class="cls-4"
           d="M366,299h0a89.81,89.81,0,0,0-19.13,2.07h0a89.33,89.33,0,0,1-19.14,2.07H315.59a89.26,89.26,0,0,1-19.14-2.07h0A89.81,89.81,0,0,0,277.32,299h0a43.74,43.74,0,0,0-33,15c-6.51,7.48-12.32,16.72-11.37,25.21l15.3,137,71.88,5.58,1.52-2.82,1.52,2.82,71.87-5.58,15.31-137c.95-8.49-4.86-17.73-11.38-25.21A43.71,43.71,0,0,0,366,299Z"
           id="path50" />
        <path
           class="cls-5"
           d="M442.55,216.37h8.29a18.41,18.41,0,0,1,18.41,18.41v1.43a18.41,18.41,0,0,1-18.41,18.41h-8.29a0,0,0,0,1,0,0V216.37A0,0,0,0,1,442.55,216.37Z"
           id="path52" />
        <path
           class="cls-3"
           d="M437.85,216.37h8.29a18.41,18.41,0,0,1,18.41,18.41v1.43a18.41,18.41,0,0,1-18.41,18.41h-8.29a0,0,0,0,1,0,0V216.37a0,0,0,0,1,0,0Z"
           id="path54" />
        <ellipse
           class="cls-5"
           cx="451.21"
           cy="235.5"
           rx="7.93"
           ry="4.4"
           transform="translate(132.36 632.21) rotate(-78.77)"
           id="ellipse56" />
        <path
           class="cls-5"
           d="M173.56,216.37h8.29a18.41,18.41,0,0,1,18.41,18.41v1.43a18.41,18.41,0,0,1-18.41,18.41h-8.29a0,0,0,0,1,0,0V216.37a0,0,0,0,1,0,0Z"
           transform="translate(373.83 471) rotate(-180)"
           id="path58" />
        <path
           class="cls-3"
           d="M178.26,216.37h8.29A18.41,18.41,0,0,1,205,234.78v1.43a18.41,18.41,0,0,1-18.41,18.41h-8.29a0,0,0,0,1,0,0V216.37A0,0,0,0,1,178.26,216.37Z"
           transform="translate(383.22 471) rotate(-180)"
           id="path60" />
        <ellipse
           class="cls-5"
           cx="191.61"
           cy="235.5"
           rx="4.4"
           ry="7.93"
           transform="translate(-42.19 41.82) rotate(-11.23)"
           id="ellipse62" />
        <polygon
           class="cls-3"
           points="579.88 654.47 544.43 654.47 491.56 654.47 460 654.47 460 654.47 445.83 654.47 428.62 681.05 422.17 725.5 423.38 763.65 432.45 812.23 457.05 819.12 460 823.21 460 823.21 491.56 823.21 544.43 823.21 579.88 823.21 615.98 823.21 615.98 654.47 579.88 654.47"
           id="polygon64" />
        <polygon
           class="cls-3"
           points="194.91 654.47 180.74 654.47 180.74 654.47 149.18 654.47 96.31 654.47 60.86 654.47 24.76 654.47 24.76 823.21 60.86 823.21 96.31 823.21 149.18 823.21 180.74 823.21 180.74 823.21 183.69 819.12 208.29 812.23 217.36 763.65 218.57 725.5 212.12 681.05 194.91 654.47"
           id="polygon66" />
        <rect
           class="cls-3"
           x="624"
           y="864.49"
           width="400"
           height="159.51"
           id="rect68" />
        <rect
           class="cls-6"
           x="992"
           width="32"
           height="32"
           id="rect70" />
        <ellipse
           class="cls-3"
           cx="320.36"
           cy="746.08"
           rx="73.24"
           ry="132.26"
           id="ellipse72" />
        <g
           class="cls-7"
           id="g78">
          <path
             d="M321,5V151.59c-46.33,0-83.91,36.38-84.07,44.26v.05L235.3,213c-1.2,12.75-16.54,22.95-26.23,15.52s-30.16-18.38-57.22,27.74S0,318.87,0,318.87V5Z"
             id="path74" />
          <path
             d="M321,5V151.59c46.33,0,83.91,36.38,84.07,44.26v.05l1.61,17.1c1.2,12.75,16.54,22.95,26.23,15.52s30.16-18.38,57.22,27.74S642,318.87,642,318.87V5Z"
             id="path76" />
        </g>
        <path
           class="cls-8"
           d="M321,0V146.59c-46.33,0-83.91,36.38-84.07,44.26v.05L235.3,208c-1.2,12.75-16.54,22.95-26.23,15.52s-30.16-18.38-57.22,27.74S0,313.87,0,313.87V0Z"
           id="path80" />
        <path
           class="cls-8"
           d="M321,0V146.59c46.33,0,83.91,36.38,84.07,44.26v.05l1.61,17.1c1.2,12.75,16.54,22.95,26.23,15.52s30.16-18.38,57.22,27.74S642,313.87,642,313.87V0Z"
           id="path82" />
        <path
           class="cls-8"
           d="m 373.67248,197.78282 a 5,5 0 0 1 -1.51,-0.23 52.12,52.12 0 0 0 -15.05,-2 5,5 0 0 1 0,-10 62.27,62.27 0 0 1 18.06,2.45 5,5 0 0 1 -1.5,9.77 z"
           id="path84" />
        <path
           class="cls-8"
           d="m 270.94559,198.13103 a 5,5 0 0 1 -1.5,-9.77 62.22,62.22 0 0 1 18.06,-2.45 5,5 0 0 1 0,10 52.2,52.2 0 0 0 -15.06,2 4.88,4.88 0 0 1 -1.5,0.22 z"
           id="path86" />
        <path
           class="cls-8"
           d="M354.78,209.56h0a7.09,7.09,0,0,1,7.09,7.09v14.61a0,0,0,0,1,0,0h-7.09a7.09,7.09,0,0,1-7.09-7.09v-7.52A7.09,7.09,0,0,1,354.78,209.56Z"
           transform="translate(134.37 575.19) rotate(-90)"
           id="path88" />
        <path
           class="cls-8"
           d="M288.68,209.56h7.09a0,0,0,0,1,0,0v14.61a7.09,7.09,0,0,1-7.09,7.09h0a7.09,7.09,0,0,1-7.09-7.09v-7.52a7.09,7.09,0,0,1,7.09-7.09Z"
           transform="translate(68.27 509.1) rotate(-90)"
           id="path90" />
        <rect
           class="cls-8"
           x="343.93"
           y="213.32"
           width="14.17"
           height="21.7"
           rx="7.09"
           ry="7.09"
           id="rect92" />
        <rect
           class="cls-8"
           x="285.36"
           y="213.32"
           width="14.17"
           height="21.7"
           rx="7.09"
           ry="7.09"
           transform="translate(584.89 448.34) rotate(180)"
           id="rect94" />
        <g
           class="cls-7"
           id="g100">
          <path
             d="M331.17,245.9c-1.22,4-4.95,5.36-9.36,5.36v-9.14l7.76,1.24A2,2,0,0,1,331.17,245.9Z"
             id="path96" />
          <path
             d="M312.48,245.9c1.22,4,4.95,5.36,9.35,5.36v-9.14l-7.75,1.24A2,2,0,0,0,312.48,245.9Z"
             id="path98" />
        </g>
        <rect
           class="cls-9"
           x="992"
           width="32"
           height="32"
           id="rect102" />
        <rect
           class="cls-11"
           x="643"
           width="381"
           height="134"
           id="rect106" />
        <rect
           class="cls-12"
           x="643"
           y="134"
           width="181"
           height="390"
           id="rect108" />
        <polygon
           class="cls-2"
           points="685.44 439.39 707.95 424.66 745.85 424.66 766.21 445.84 763.57 471.33 735.92 484.58 701.16 478.78 685.44 439.39"
           id="polygon110" />
        <polygon
           class="cls-2"
           points="685.44 264.47 707.95 249.74 745.85 249.74 766.21 270.93 763.57 296.42 735.92 309.66 701.16 303.87 685.44 264.47"
           id="polygon112" />
        <rect
           class="cls-2"
           x="713.32"
           y="395.74"
           width="26.58"
           height="5.41"
           rx="2.7"
           ry="2.7"
           id="rect114" />
        <rect
           class="cls-2"
           x="713.32"
           y="386.11"
           width="26.58"
           height="5.41"
           rx="2.7"
           ry="2.7"
           id="rect116" />
        <rect
           class="cls-2"
           x="713.32"
           y="405.83"
           width="26.58"
           height="5.41"
           rx="2.7"
           ry="2.7"
           id="rect118" />
        <rect
           class="cls-2"
           x="713.32"
           y="221.15"
           width="26.58"
           height="5.41"
           rx="2.7"
           ry="2.7"
           id="rect120" />
        <rect
           class="cls-2"
           x="713.32"
           y="210.84"
           width="26.58"
           height="5.41"
           rx="2.7"
           ry="2.7"
           id="rect122" />
        <rect
           class="cls-2"
           x="713.32"
           y="231.25"
           width="26.58"
           height="5.41"
           rx="2.7"
           ry="2.7"
           id="rect124" />
        <path
           class="cls-13"
           d="M806,315.06l-8.41,15.88-.11,13.64L779,393.74l-11.25,31.05L756,456.55a25.15,25.15,0,0,1-7.8,10.82h0a25.17,25.17,0,0,1-11.82,5.27l-6,1a25.15,25.15,0,0,1-9.7-.34l-4.78-1.11a25.16,25.16,0,0,1-12.13-6.73l-.59-.59a25.08,25.08,0,0,1-5.47-8.21L689.55,437l-11.5-28.5-4-13.8-6-26.11L666.6,353l-.05-26.66h-20.5V483.78l57.24,18H797l13-48,10.5-98.48V319.61Z"
           id="path126" />
        <path
           class="cls-13"
           d="M806,139.59l-8.17,15.88-.12,13.64L779,218.27l-11.25,31L756,281.09a25.15,25.15,0,0,1-7.8,10.82h0a25.15,25.15,0,0,1-11.82,5.26l-6,1a25.14,25.14,0,0,1-9.7-.33l-4.78-1.11A25.32,25.32,0,0,1,703.69,290l-.59-.59a25,25,0,0,1-5.47-8.22l-8.08-19.59-11.5-28.5-4-13.8-6-26.1L666.6,177.5l-.05-26.65h-20.5V308.31l57.24,18H797l13-48,10.5-98.49V144.14Z"
           id="path128" />
        <path
           class="cls-2"
           d="M692.28,330.68l3.64,22.77a23.6,23.6,0,0,0,5.46,11.72l8.31,9.59a23.6,23.6,0,0,0,17.82,8.13h0a23.59,23.59,0,0,0,14.58-5.05l3.43-2.7a23.55,23.55,0,0,0,5.29-5.84l4.8-7.53a23.4,23.4,0,0,0,2.21-4.42L768.42,329H692.28Z"
           id="path130" />
        <path
           class="cls-2"
           d="M692.28,154.72l3.64,22.77a23.6,23.6,0,0,0,5.46,11.72l8.31,9.58a23.58,23.58,0,0,0,17.82,8.14h0a23.59,23.59,0,0,0,14.58-5.05l3.43-2.71a23.37,23.37,0,0,0,5.29-5.84l4.8-7.52a23.79,23.79,0,0,0,2.21-4.43L768.42,153H692.28Z"
           id="path132" />
        <rect
           class="cls-14"
           x="624"
           y="764"
           width="400"
           height="109.12"
           id="rect134" />
        <rect
           class="cls-2"
           x="631.59"
           y="968.54"
           width="383.62"
           height="48.93"
           id="rect136" />
        <rect
           class="cls-13"
           x="631.59"
           y="968.54"
           width="383.62"
           height="6.96"
           id="rect138" />
        <rect
           class="cls-15"
           x="624"
           y="864.42"
           width="400"
           height="8.7"
           id="rect140" />
        <rect
           class="cls-15"
           x="624"
           y="786.3"
           width="400"
           height="16.15"
           id="rect142" />
        <path
           class="cls-16"
           d="M682.15,786.3a48.75,48.75,0,0,1-48.75,48.75V786.3Z"
           id="path144" />
        <path
           class="cls-17"
           d="M770.35,786.3a48.75,48.75,0,0,0,48.75,48.75V786.3Z"
           id="path146" />
        <path
           class="cls-18"
           d="M180.74,484.58V1024H460V484.58Zm140.37,346.7c-25.08,0-45.41-54.27-45.41-85.91S296,717,321.11,717s45.4-3.3,45.4,28.33S346.18,831.28,321.11,831.28Z"
           id="path148" />
        <rect
           class="cls-12"
           x="172.9"
           y="654.47"
           width="7.84"
           height="188.74"
           transform="translate(353.64 1497.67) rotate(-180)"
           id="rect150" />
        <rect
           class="cls-12"
           x="460"
           y="654.47"
           width="7.84"
           height="188.74"
           transform="translate(927.84 1497.67) rotate(-180)"
           id="rect152" />
        <polygon
           class="cls-19"
           points="291.02 968.77 268.5 984.65 293.85 1006.8 246.63 1006.8 252.39 968.77 291.02 968.77"
           id="polygon154" />
        <path
           class="cls-20"
           d="M332.54,975.25H311.23a6.63,6.63,0,0,0-6.63,6.63v11.41a6.63,6.63,0,0,0,6.63,6.63h21.31a6.63,6.63,0,0,0,6.63-6.63V981.88A6.63,6.63,0,0,0,332.54,975.25Zm3.13,17.52a3.42,3.42,0,0,1-3.42,3.43H311.52a3.43,3.43,0,0,1-3.43-3.43V982.39a3.43,3.43,0,0,1,3.43-3.42h20.73a3.42,3.42,0,0,1,3.42,3.42Z"
           id="path156" />
        <rect
           class="cls-20"
           x="314.68"
           y="977.86"
           width="4.63"
           height="19.44"
           id="rect158" />
        <path
           class="cls-20"
           d="M317,977.86h0a2.31,2.31,0,0,1,2.31,2.31V997.3a0,0,0,0,1,0,0h-4.63a0,0,0,0,1,0,0V980.18A2.31,2.31,0,0,1,317,977.86Z"
           transform="translate(1304.57 670.59) rotate(90)"
           id="path160" />
        <rect
           class="cls-18"
           x="180.74"
           y="968.37"
           width="279.26"
           height="38.43"
           id="rect162" />
        <rect
           class="cls-18"
           x="180.74"
           y="494.89"
           width="279.26"
           height="38.43"
           id="rect164" />
        <path
           class="cls-21"
           d="M431.62,852.78v9.35a11.8,11.8,0,0,1-2.23,6.85c-26.89,37.44-65.45,60.91-108.29,60.91S239.71,906.42,212.82,869a11.8,11.8,0,0,1-2.23-6.85V853a11.62,11.62,0,0,1,17.2-10.17l.32.17a35.26,35.26,0,0,1,16.46,18.77A42.88,42.88,0,0,0,299,887.24a67.56,67.56,0,0,1,44.82,0,42.86,42.86,0,0,0,54.38-25.43,35.44,35.44,0,0,1,16.22-19l.18-.1A11.5,11.5,0,0,1,431.62,852.78Z"
           id="path166" />
        <rect
           class="cls-12"
           x="180.74"
           y="997.3"
           width="279.26"
           height="13.26"
           id="rect168" />
        <rect
           class="cls-12"
           x="180.74"
           y="494.16"
           width="279.26"
           height="13.58"
           id="rect170" />
        <rect
           class="cls-18"
           x="205.31"
           y="834.28"
           width="229.44"
           height="116.08"
           id="rect172" />
        <path
           class="cls-22"
           d="M377.33,885.09c-10.89,12.3-32,20.64-56.22,20.64-24.58,0-45.93-8.57-56.67-21.16A42.95,42.95,0,0,0,299,887.24a67.56,67.56,0,0,1,44.82,0,42.92,42.92,0,0,0,33.53-2.15Z"
           id="path174" />
        <g
           class="cls-7"
           id="g180">
          <rect
             x="164.96"
             y="654.47"
             width="7.84"
             height="188.74"
             transform="translate(337.77 1497.67) rotate(-180)"
             id="rect176" />
          <rect
             x="467.85"
             y="654.47"
             width="7.84"
             height="188.74"
             transform="translate(943.55 1497.67) rotate(-180)"
             id="rect178" />
        </g>
        <g
           class="cls-23"
           id="g184">
          <path
             class="cls-24"
             d="M364.05,767.18c-6.13,29.92-23,64.1-42.94,64.1s-36.82-34.18-42.95-64.1c7.67,27.58,24,55.75,42.95,55.75S356.38,794.76,364.05,767.18Z"
             id="path182" />
        </g>
        <rect
           class="cls-25"
           x="992"
           width="32"
           height="32"
           id="rect186" />
        <g
           id="g126"
           transform="translate(-26.992362,8.6346106)">
          <path
             d="m 363.58218,250.26585 v 1.15 a 15.13,15.13 0 0 1 -5.17,11.41 c -0.4,0.34 -0.81,0.67 -1.23,1 -0.21,0.15 -0.41,0.28 -0.62,0.41 a 15.26,15.26 0 0 1 -1.98,1.03 14.92,14.92 0 0 1 -5.79,1.32 h -0.83 a 14.93,14.93 0 0 1 -5.8,-1.32 15.26,15.26 0 0 1 -1.95,-1.06 c -0.21,-0.13 -0.41,-0.27 -0.61,-0.41 a 14.57,14.57 0 0 1 -1.23,-1 15.13,15.13 0 0 1 -5.17,-11.41 v -1.12 z"
             id="path214" />
          <ellipse
             class="cls-38"
             cx="348.39218"
             cy="262.20584"
             rx="6.2800002"
             ry="4.3899999"
             id="ellipse216"
             style="fill:#dd2b26" />
          <path
             class="cls-2"
             d="m 334.48218,250.26585 a 4.4,4.4 0 0 0 4.42,4.42 h 19 a 4.41,4.41 0 0 0 4.42,-4.42 z"
             id="path218"
             style="fill:#ffffff" />
          <path
             class="cls-2"
             d="m 356.58218,264.16585 a 15.26,15.26 0 0 1 -2,1.1 14.92,14.92 0 0 1 -5.79,1.32 h -0.83 a 14.93,14.93 0 0 1 -5.8,-1.32 15.26,15.26 0 0 1 -1.95,-1.06 c 1.46,-1.26 4.57,-1.25 8.16,-1.25 3.59,0 6.7,-0.01 8.21,1.21 z"
             id="path220"
             style="fill:#ffffff" />
        </g>
      </g>
    </g>
  </g>
</svg>
