<?xml version="1.0" encoding="UTF-8" standalone="no"?>
<svg
   xmlns:dc="http://purl.org/dc/elements/1.1/"
   xmlns:cc="http://creativecommons.org/ns#"
   xmlns:rdf="http://www.w3.org/1999/02/22-rdf-syntax-ns#"
   xmlns:svg="http://www.w3.org/2000/svg"
   xmlns="http://www.w3.org/2000/svg"
   xmlns:xlink="http://www.w3.org/1999/xlink"
   xmlns:sodipodi="http://sodipodi.sourceforge.net/DTD/sodipodi-0.dtd"
   xmlns:inkscape="http://www.inkscape.org/namespaces/inkscape"
   viewBox="0 0 1024 1024"
   version="1.1"
   id="svg228"
   sodipodi:docname="farmerA_angry.svg"
   inkscape:version="1.0 (9f2f71dc58, 2020-08-02)">
  <metadata
     id="metadata232">
    <rdf:RDF>
      <cc:Work
         rdf:about="">
        <dc:format>image/svg+xml</dc:format>
        <dc:type
           rdf:resource="http://purl.org/dc/dcmitype/StillImage" />
      </cc:Work>
    </rdf:RDF>
  </metadata>
  <sodipodi:namedview
     pagecolor="#ffffff"
     bordercolor="#666666"
     borderopacity="1"
     objecttolerance="10"
     gridtolerance="10"
     guidetolerance="10"
     inkscape:pageopacity="0"
     inkscape:pageshadow="2"
     inkscape:window-width="1920"
     inkscape:window-height="1052"
     id="namedview230"
     showgrid="false"
     inkscape:zoom="2.8710937"
     inkscape:cx="332.14248"
     inkscape:cy="289.58274"
     inkscape:window-x="1920"
     inkscape:window-y="0"
     inkscape:window-maximized="1"
     inkscape:current-layer="Layer_1-2" />
  <defs
     id="defs30">
    <style
       id="style2">.cls-1{isolation:isolate;}.cls-2{fill:#fff;}.cls-3{fill:#f58c6a;}.cls-4{fill:#f69878;}.cls-22,.cls-5{opacity:0.15;}.cls-13,.cls-16,.cls-17,.cls-22,.cls-34,.cls-36,.cls-5{mix-blend-mode:overlay;}.cls-5{fill:url(#linear-gradient);}.cls-6{fill:#f37b67;}.cls-7{fill:url(#linear-gradient-2);}.cls-8{fill:url(#linear-gradient-3);}.cls-9{fill:red;}.cls-10,.cls-36{opacity:0.1;}.cls-10,.cls-14,.cls-15,.cls-21,.cls-24,.cls-27,.cls-29,.cls-30{mix-blend-mode:multiply;}.cls-10{fill:url(#linear-gradient-4);}.cls-11{fill:#e97424;}.cls-12{fill:#195c86;}.cls-13{fill:url(#linear-gradient-5);}.cls-14,.cls-28{fill:#2b5d85;}.cls-14,.cls-16,.cls-17,.cls-27,.cls-34{opacity:0.25;}.cls-15,.cls-29,.cls-30{opacity:0.75;}.cls-16{fill:url(#linear-gradient-6);}.cls-17{fill:url(#linear-gradient-7);}.cls-18{fill:#167563;}.cls-19{fill:#f99d28;}.cls-20{fill:#2d8e5d;}.cls-21,.cls-25{fill:#2e75bc;}.cls-21,.cls-24{opacity:0.4;}.cls-23{fill:#d4eef4;}.cls-26{fill:#f29a2f;}.cls-29{fill:url(#radial-gradient);}.cls-30{fill:url(#radial-gradient-2);}.cls-31{fill:none;stroke:#e97424;stroke-linejoin:round;stroke-width:4px;}.cls-32{fill:lime;}.cls-33{fill:#220f0f;}.cls-35{fill:#a36841;}.cls-36{fill:url(#linear-gradient-8);}.cls-37{fill:#9d613d;}.cls-38{fill:#dd2b26;}.cls-39{fill:blue;}</style>
    <linearGradient
       id="linear-gradient"
       x1="321.68"
       y1="286"
       x2="321.68"
       y2="431.12"
       gradientUnits="userSpaceOnUse">
      <stop
         offset="0"
         id="stop4" />
      <stop
         offset="1"
         stop-opacity="0"
         id="stop6" />
    </linearGradient>
    <linearGradient
       id="linear-gradient-2"
       x1="438.5"
       y1="235.5"
       x2="507.96"
       y2="235.5"
       gradientUnits="userSpaceOnUse">
      <stop
         offset="0"
         stop-color="#f69878"
         id="stop9" />
      <stop
         offset="1"
         stop-color="#f37b67"
         id="stop11" />
    </linearGradient>
    <linearGradient
       id="linear-gradient-3"
       x1="202"
       y1="235.5"
       x2="152.85"
       y2="235.5"
       gradientTransform="translate(383.22 471) rotate(180)"
       xlink:href="#linear-gradient-2" />
    <linearGradient
       id="linear-gradient-4"
       x1="321.5"
       y1="490"
       x2="321.5"
       y2="187.52"
       gradientUnits="userSpaceOnUse">
      <stop
         offset="0"
         stop-color="#f69878"
         id="stop15" />
      <stop
         offset="1"
         stop-color="#f69878"
         stop-opacity="0"
         id="stop17" />
    </linearGradient>
    <linearGradient
       id="linear-gradient-5"
       x1="822.07"
       y1="801.69"
       x2="822.07"
       y2="1322.68"
       gradientUnits="userSpaceOnUse">
      <stop
         offset="0"
         stop-opacity="0"
         id="stop20" />
      <stop
         offset="1"
         id="stop22" />
    </linearGradient>
    <linearGradient
       id="linear-gradient-6"
       x1="797.88"
       y1="850.65"
       x2="797.88"
       y2="815.18"
       xlink:href="#linear-gradient" />
    <linearGradient
       id="linear-gradient-7"
       x1="16667.88"
       y1="850.65"
       x2="16667.88"
       y2="815.18"
       gradientTransform="matrix(-1, 0, 0, 1, 17322.5, 0)"
       xlink:href="#linear-gradient" />
    <radialGradient
       id="radial-gradient"
       cx="384.73"
       cy="806.05"
       r="54.84"
       xlink:href="#linear-gradient" />
    <radialGradient
       id="radial-gradient-2"
       cx="259.69"
       cy="797.21"
       r="66.41"
       xlink:href="#linear-gradient" />
    <linearGradient
       id="linear-gradient-8"
       x1="321.62"
       y1="143"
       x2="321.62"
       y2="255.45"
       xlink:href="#linear-gradient-5" />
  </defs>
  <title
     id="title32">farmerA</title>
  <g
     class="cls-1"
     id="g226">
    <g
       id="Layer_2"
       data-name="Layer 2">
      <g
         id="Layer_1-2"
         data-name="Layer 1">
        <rect
           class="cls-2"
           width="1024"
           height="1024"
           id="rect34" />
        <rect
           class="cls-3"
           x="624"
           y="524"
           width="400"
           height="240"
           id="rect36" />
        <rect
           class="cls-4"
           width="643"
           height="490"
           id="rect38" />
        <path
           class="cls-5"
           d="M366,299h0a89.81,89.81,0,0,0-19.13,2.07h0a89.33,89.33,0,0,1-19.14,2.07H315.59a89.26,89.26,0,0,1-19.14-2.07h0A89.81,89.81,0,0,0,277.32,299h0a43.74,43.74,0,0,0-33,15c-6.51,7.48-12.32,16.72-11.37,25.21l15.3,137,71.88,5.58,1.52-2.82,1.52,2.82,71.87-5.58,15.31-137c.95-8.49-4.86-17.73-11.38-25.21A43.71,43.71,0,0,0,366,299Z"
           id="path40" />
        <rect
           class="cls-4"
           x="824"
           y="134"
           width="200"
           height="390"
           id="rect42" />
        <path
           class="cls-6"
           d="M442.55,216.37h8.29a18.41,18.41,0,0,1,18.41,18.41v1.43a18.41,18.41,0,0,1-18.41,18.41h-8.29a0,0,0,0,1,0,0V216.37A0,0,0,0,1,442.55,216.37Z"
           id="path44" />
        <path
           class="cls-7"
           d="M437.85,216.37h8.29a18.41,18.41,0,0,1,18.41,18.41v1.43a18.41,18.41,0,0,1-18.41,18.41h-8.29a0,0,0,0,1,0,0V216.37A0,0,0,0,1,437.85,216.37Z"
           id="path46" />
        <ellipse
           class="cls-6"
           cx="451.21"
           cy="235.5"
           rx="7.93"
           ry="4.4"
           transform="translate(132.36 632.21) rotate(-78.77)"
           id="ellipse48" />
        <path
           class="cls-6"
           d="M173.56,216.37h8.29a18.41,18.41,0,0,1,18.41,18.41v1.43a18.41,18.41,0,0,1-18.41,18.41h-8.29a0,0,0,0,1,0,0V216.37a0,0,0,0,1,0,0Z"
           transform="translate(373.83 471) rotate(-180)"
           id="path50" />
        <path
           class="cls-8"
           d="M178.26,216.37h8.29A18.41,18.41,0,0,1,205,234.78v1.43a18.41,18.41,0,0,1-18.41,18.41h-8.29a0,0,0,0,1,0,0V216.37A0,0,0,0,1,178.26,216.37Z"
           transform="translate(383.22 471) rotate(-180)"
           id="path52" />
        <ellipse
           class="cls-6"
           cx="191.61"
           cy="235.5"
           rx="4.4"
           ry="7.93"
           transform="translate(-42.19 41.82) rotate(-11.23)"
           id="ellipse54" />
        <polygon
           class="cls-4"
           points="579.88 654.47 544.43 654.47 491.56 654.47 460 654.47 460 654.47 445.83 654.47 428.62 681.05 422.17 725.5 423.38 763.65 432.45 812.23 457.05 819.12 460 823.21 460 823.21 491.56 823.21 544.43 823.21 579.88 823.21 615.98 823.21 615.98 654.47 579.88 654.47"
           id="polygon56" />
        <polygon
           class="cls-4"
           points="212.12 681.05 194.91 654.47 180.74 654.47 180.74 654.47 149.18 654.47 96.31 654.47 60.86 654.47 24.76 654.47 24.76 823.21 60.86 823.21 96.31 823.21 149.18 823.21 180.74 823.21 180.74 823.21 183.69 819.12 208.29 812.23 217.36 763.65 218.57 725.5 212.12 681.05"
           id="polygon58" />
        <rect
           class="cls-4"
           x="624"
           y="864.49"
           width="400"
           height="159.51"
           id="rect60" />
        <rect
           class="cls-9"
           x="992"
           width="32"
           height="32"
           id="rect62" />
        <rect
           class="cls-10"
           y="139.59"
           width="643"
           height="350.41"
           id="rect64" />
        <ellipse
           class="cls-4"
           cx="320.36"
           cy="746.08"
           rx="73.24"
           ry="132.26"
           id="ellipse66" />
        <rect
           class="cls-11"
           x="643"
           width="381"
           height="134"
           id="rect68" />
        <path
           class="cls-12"
           d="M155.18,490v534H485.54V490ZM320.46,789.36c-21.86,0-29.13-15.65-29.13-35s7.27-35,29.13-35,29.14,15.65,29.14,35S342.32,789.36,320.46,789.36Z"
           id="path70" />
        <path
           class="cls-12"
           d="M202.68,490v523.56H444.83V490ZM320.46,789.36c-21.86,0-29.13-15.65-29.13-35s7.27-35,29.13-35,29.14,15.65,29.14,35S342.32,789.36,320.46,789.36Z"
           id="path72" />
        <rect
           class="cls-12"
           x="624"
           y="770.14"
           width="396.14"
           height="222.44"
           id="rect74" />
        <rect
           class="cls-13"
           x="624"
           y="770.14"
           width="396.14"
           height="222.44"
           id="rect76" />
        <rect
           class="cls-14"
           x="631.59"
           y="786.3"
           width="383.62"
           height="16.15"
           id="rect78" />
        <g
           class="cls-15"
           id="g84">
          <path
             class="cls-16"
             d="M779.93,833.58c6.75,6.59,15.94,12.12,23.76,16a10.69,10.69,0,0,0,15.41-9.61v-14a10.7,10.7,0,0,0-10.7-10.7h-21A10.71,10.71,0,0,0,779.93,833.58Z"
             id="path80" />
          <path
             class="cls-17"
             d="M672.56,833.58c-6.74,6.59-15.93,12.12-23.75,16a10.69,10.69,0,0,1-15.41-9.61v-14a10.7,10.7,0,0,1,10.7-10.7h21A10.71,10.71,0,0,1,672.56,833.58Z"
             id="path82" />
        </g>
        <rect
           class="cls-18"
           x="646.85"
           y="139.59"
           width="170.83"
           height="377.91"
           id="rect86" />
        <path
           class="cls-19"
           d="M806,315.06l-8.41,15.88-.11,13.64L779,393.74l-11.25,31.05L756,456.55a25.15,25.15,0,0,1-7.8,10.82h0a25.17,25.17,0,0,1-11.82,5.27l-6,1a25.15,25.15,0,0,1-9.7-.34l-4.78-1.11a25.16,25.16,0,0,1-12.13-6.73l-.59-.59a25.08,25.08,0,0,1-5.47-8.21L689.55,437l-11.5-28.5-4-13.8-6-26.11L666.6,353l-.05-26.66h-20.5V483.78l57.24,18H797l13-48,10.5-98.48V319.61Z"
           id="path88" />
        <path
           class="cls-19"
           d="M806,139.59l-8.17,15.88-.12,13.64L779,218.27l-11.25,31L756,281.09a25.15,25.15,0,0,1-7.8,10.82h0a25.15,25.15,0,0,1-11.82,5.26l-6,1a25.14,25.14,0,0,1-9.7-.33l-4.78-1.11A25.32,25.32,0,0,1,703.69,290l-.59-.59a25,25,0,0,1-5.47-8.22l-8.08-19.59-11.5-28.5-4-13.8-6-26.1L666.6,177.5l-.05-26.65h-20.5V308.31l57.24,18H797l13-48,10.5-98.49V144.14Z"
           id="path90" />
        <rect
           class="cls-18"
           x="631.59"
           y="968.54"
           width="383.62"
           height="48.93"
           id="rect92" />
        <rect
           class="cls-20"
           x="631.59"
           y="968.54"
           width="383.62"
           height="7.93"
           id="rect94" />
        <rect
           class="cls-21"
           x="631.59"
           y="962.28"
           width="383.62"
           height="6.25"
           id="rect96" />
        <rect
           class="cls-2"
           x="149.18"
           y="654.47"
           width="31.56"
           height="188.74"
           id="rect98" />
        <polygon
           class="cls-2"
           points="194.91 654.47 212.12 681.05 218.57 725.5 217.36 763.65 208.29 812.23 183.69 819.12 180.74 843.21 180.74 654.47 194.91 654.47"
           id="polygon100" />
        <polygon
           class="cls-2"
           points="198.87 660.63 199.66 641.17 245.12 643.86 243.93 662.83 254.52 725.39 254.52 767.14 242.11 826.41 241.66 840.38 189.95 854.26 189.95 660.72 198.87 660.63"
           id="polygon102" />
        <rect
           class="cls-2"
           x="459.97"
           y="654.47"
           width="31.56"
           height="188.74"
           id="rect104" />
        <rect
           class="cls-22"
           x="491.53"
           y="654.47"
           width="5.99"
           height="188.74"
           transform="translate(989.05 1497.67) rotate(180)"
           id="rect106" />
        <rect
           class="cls-23"
           x="485.54"
           y="654.47"
           width="5.99"
           height="188.74"
           transform="translate(977.06 1497.67) rotate(180)"
           id="rect108" />
        <rect
           class="cls-22"
           x="143.19"
           y="654.47"
           width="5.99"
           height="188.74"
           transform="translate(292.38 1497.67) rotate(180)"
           id="rect110" />
        <rect
           class="cls-23"
           x="149.18"
           y="654.47"
           width="5.99"
           height="188.74"
           transform="translate(304.36 1497.67) rotate(180)"
           id="rect112" />
        <polygon
           class="cls-2"
           points="433.55 654.47 428.59 681.05 422.14 725.5 423.36 763.65 432.43 812.23 457.02 819.12 459.97 843.21 459.97 654.47 433.55 654.47"
           id="polygon114" />
        <polygon
           class="cls-2"
           points="452.02 624.55 424.82 644.13 395.59 645.86 396.78 662.83 386.2 725.39 386.2 767.14 398.6 826.41 399.05 840.38 450.76 849.45 450.76 660.72 452.02 624.55"
           id="polygon116" />
        <path
           class="cls-23"
           d="M367.58,658.56,365.49,640H277.44l-2.09,18.56-5.79,51.36v78l5.95,52.76,0,.32.07.58,1.83,16.25h88.05l1.93-17.13,5.95-52.78v-78Zm-47.12,130.8c-21.86,0-29.13-15.65-29.13-35s7.27-35,29.13-35,29.14,15.65,29.14,35S342.32,789.36,320.46,789.36Z"
           id="path118" />
        <path
           class="cls-2"
           d="M365.49,663.59H277.44l-7.88,54.77v61.09l7.88,54.78h88.05l7.88-54.78V718.36Zm-45,125.77c-21.86,0-29.13-15.65-29.13-35s7.27-35,29.13-35,29.14,15.65,29.14,35S342.32,789.36,320.46,789.36Z"
           id="path120" />
        <path
           class="cls-23"
           d="M320.46,715.32c-19.61,0-35.52,17.69-35.52,39.52s15.91,39.52,35.52,39.52S356,776.67,356,754.84,340.08,715.32,320.46,715.32Zm0,74c-21.86,0-29.13-15.65-29.13-35s7.27-35,29.13-35,29.14,15.65,29.14,35S342.32,789.36,320.46,789.36Z"
           id="path122" />
        <polygon
           class="cls-12"
           points="444.83 844.21 444.83 1018.37 205.57 1018.37 205.57 845.36 254.7 839.56 321.11 843.06 389.08 839.56 444.83 844.21"
           id="polygon124" />
        <polygon
           class="cls-12"
           points="444.83 493.5 205.57 493.5 205.57 610.05 211.42 610.05 211.42 634.85 254.69 658.56 386.71 658.56 431.88 636.26 431.88 610.05 444.83 610.05 444.83 493.5"
           id="polygon126" />
        <g
           class="cls-24"
           id="g132">
          <ellipse
             class="cls-25"
             cx="287.69"
             cy="900.28"
             rx="7.23"
             ry="6.72"
             id="ellipse128" />
          <ellipse
             class="cls-25"
             cx="355.24"
             cy="900.28"
             rx="7.23"
             ry="6.72"
             id="ellipse130" />
        </g>
        <ellipse
           class="cls-26"
           cx="287.69"
           cy="897.14"
           rx="7.23"
           ry="6.72"
           id="ellipse134" />
        <ellipse
           class="cls-26"
           cx="355.24"
           cy="897.14"
           rx="7.23"
           ry="6.72"
           id="ellipse136" />
        <g
           class="cls-27"
           id="g142">
          <path
             class="cls-28"
             d="M362.26,973.07h-81.6a1.88,1.88,0,0,1-1.88-1.88V920.9a1.88,1.88,0,0,1,1.88-1.88h81.6a1.88,1.88,0,0,1,1.88,1.88v50.29A1.88,1.88,0,0,1,362.26,973.07Zm-79.72-3.76h77.84V922.78H282.54Z"
             id="path138" />
          <path
             class="cls-28"
             d="M321.46,953.92a1.93,1.93,0,0,1-1.14-.38l-40.8-31.15a1.88,1.88,0,0,1,1.14-3.37h81.6a1.88,1.88,0,0,1,1.14,3.37l-40.8,31.15A1.93,1.93,0,0,1,321.46,953.92Zm-35.24-31.14,35.24,26.9,35.24-26.9Z"
             id="path140" />
        </g>
        <rect
           class="cls-14"
           x="230.48"
           y="506.32"
           width="28.67"
           height="2.71"
           rx="1.35"
           ry="1.35"
           id="rect144" />
        <rect
           class="cls-14"
           x="269.3"
           y="506.32"
           width="28.67"
           height="2.71"
           rx="1.35"
           ry="1.35"
           id="rect146" />
        <rect
           class="cls-14"
           x="308.13"
           y="506.32"
           width="28.67"
           height="2.71"
           rx="1.35"
           ry="1.35"
           id="rect148" />
        <rect
           class="cls-14"
           x="346.95"
           y="506.32"
           width="28.67"
           height="2.71"
           rx="1.35"
           ry="1.35"
           id="rect150" />
        <rect
           class="cls-14"
           x="385.77"
           y="506.32"
           width="28.67"
           height="2.71"
           rx="1.35"
           ry="1.35"
           id="rect152" />
        <rect
           class="cls-14"
           x="230.48"
           y="995.9"
           width="28.67"
           height="2.71"
           rx="1.35"
           ry="1.35"
           id="rect154" />
        <rect
           class="cls-14"
           x="269.3"
           y="995.9"
           width="28.67"
           height="2.71"
           rx="1.35"
           ry="1.35"
           id="rect156" />
        <rect
           class="cls-14"
           x="308.13"
           y="995.9"
           width="28.67"
           height="2.71"
           rx="1.35"
           ry="1.35"
           id="rect158" />
        <rect
           class="cls-14"
           x="346.95"
           y="995.9"
           width="28.67"
           height="2.71"
           rx="1.35"
           ry="1.35"
           id="rect160" />
        <rect
           class="cls-14"
           x="385.77"
           y="995.9"
           width="28.67"
           height="2.71"
           rx="1.35"
           ry="1.35"
           id="rect162" />
        <rect
           class="cls-19"
           x="677.27"
           y="25.57"
           width="6.24"
           height="104.4"
           id="rect164" />
        <rect
           class="cls-19"
           x="702.36"
           y="25.57"
           width="6.24"
           height="104.4"
           id="rect166" />
        <rect
           class="cls-19"
           x="727.45"
           y="25.57"
           width="6.24"
           height="104.4"
           id="rect168" />
        <rect
           class="cls-19"
           x="752.54"
           y="25.57"
           width="6.24"
           height="104.4"
           id="rect170" />
        <rect
           class="cls-19"
           x="777.63"
           y="25.57"
           width="6.24"
           height="104.4"
           id="rect172" />
        <rect
           class="cls-19"
           x="849.96"
           y="25.57"
           width="6.24"
           height="104.4"
           id="rect174" />
        <rect
           class="cls-19"
           x="875.05"
           y="25.57"
           width="6.24"
           height="104.4"
           id="rect176" />
        <rect
           class="cls-19"
           x="900.14"
           y="25.57"
           width="6.24"
           height="104.4"
           id="rect178" />
        <rect
           class="cls-19"
           x="925.23"
           y="25.57"
           width="6.24"
           height="104.4"
           id="rect180" />
        <rect
           class="cls-19"
           x="950.32"
           y="25.57"
           width="6.24"
           height="104.4"
           id="rect182" />
        <polygon
           class="cls-29"
           points="367.6 840.69 383.81 857.81 399.05 838.29 399.05 878.3 367.6 873.41 367.6 840.69"
           id="polygon184" />
        <polygon
           class="cls-30"
           points="275.64 840.88 258.65 860.63 241.66 840.38 242.54 880.88 273.99 876 275.64 840.88"
           id="polygon186" />
        <path
           class="cls-31"
           d="M806,315.06l-8.41,15.88-.11,13.64L779,393.74l-11.25,31.05L756,456.55a25.15,25.15,0,0,1-7.8,10.82h0a25.17,25.17,0,0,1-11.82,5.27l-6,1a25.15,25.15,0,0,1-9.7-.34l-4.78-1.11a25.16,25.16,0,0,1-12.13-6.73l-.59-.59a25.08,25.08,0,0,1-5.47-8.21L689.55,437l-11.5-28.5-4-13.8-6-26.11L666.6,353l-.05-26.66h-20.5V483.78l57.24,18H797l13-48,10.5-98.48V319.61Z"
           id="path188" />
        <path
           class="cls-31"
           d="M806,139.59l-8.17,15.88-.12,13.64L779,218.27l-11.25,31L756,281.09a25.15,25.15,0,0,1-7.8,10.82h0a25.15,25.15,0,0,1-11.82,5.26l-6,1a25.14,25.14,0,0,1-9.7-.33l-4.78-1.11A25.32,25.32,0,0,1,703.69,290l-.59-.59a25,25,0,0,1-5.47-8.22l-8.08-19.59-11.5-28.5-4-13.8-6-26.1L666.6,177.5l-.05-26.65h-20.5V308.31l57.24,18H797l13-48,10.5-98.49V144.14Z"
           id="path190" />
        <rect
           class="cls-32"
           x="992"
           width="32"
           height="32"
           id="rect192" />
        <ellipse
           class="cls-33"
           cx="291.04"
           cy="224.17"
           rx="8.96"
           ry="10.3"
           id="ellipse194" />
        <ellipse
           class="cls-33"
           cx="352.43"
           cy="224.17"
           rx="8.96"
           ry="10.3"
           id="ellipse196" />
        <path
           class="cls-34"
           d="M330.57,241.26l-6.08-.9a18.45,18.45,0,0,0-5.35,0l-6.07.9a2.08,2.08,0,0,0-1.8,2.65c1.38,4.18,5.58,5.59,10.54,5.59h0c5,0,9.16-1.41,10.54-5.59A2.08,2.08,0,0,0,330.57,241.26Z"
           id="path198" />
        <path
           class="cls-22"
           d="M321.62,3.39V156H274.27a34.46,34.46,0,0,0-34,28.64.17.17,0,0,1,0,.07c-.09.45-.15.9-.21,1.35h-.81l6.93,64.32.14,1.33a6.09,6.09,0,0,1-6.05,6.73h-3.12a19.3,19.3,0,0,1-15.62-8c-6.26-8.66-14.95-17.48-18.8-26.29a20.22,20.22,0,0,0-21.69-11.6,6,6,0,0,0-1.84.63l-1.39.74a5.58,5.58,0,0,0-1.64,1.25c-4.27,4.75-10,21.42-18.73,32.95s-53,33.69-69.35,41.06l-29,13.47-.43.19-21,7.87a6,6,0,0,1-1,.28l-25.16,4.87L11,316l-4.11.49A6.2,6.2,0,0,1,0,310.28V9.6A6.21,6.21,0,0,1,6.2,3.39Z"
           id="path200" />
        <path
           class="cls-22"
           d="M321.62,3.39V156H369a34.46,34.46,0,0,1,34,28.64.17.17,0,0,0,0,.07c.09.45.15.9.21,1.35H404l-6.93,64.32-.14,1.33a6.09,6.09,0,0,0,6,6.73h3.12a19.3,19.3,0,0,0,15.62-8c6.26-8.66,14.95-17.48,18.8-26.29a20.22,20.22,0,0,1,21.69-11.6,6,6,0,0,1,1.84.63l1.39.74a5.58,5.58,0,0,1,1.64,1.25c4.27,4.75,9.95,21.42,18.73,32.95s53,33.69,69.35,41.06l29,13.47.43.19,21,7.87a6,6,0,0,0,1,.28l25.16,4.87.45.07,4.11.49a6.2,6.2,0,0,0,6.93-6.16V9.6A6.21,6.21,0,0,0,637,3.39Z"
           id="path202" />
        <path
           class="cls-33"
           d="M240.28,184.73c0-.35.05-.72.1-1.09,0,.34-.06.69-.09,1A.17.17,0,0,1,240.28,184.73Z"
           id="path204" />
        <path
           class="cls-35"
           d="M643.24,6.2V306.88a6.2,6.2,0,0,1-6.93,6.16l-4.11-.48-.45-.07-25.16-4.87a7.08,7.08,0,0,1-1-.28l-21-7.88a3.25,3.25,0,0,1-.43-.18l-29-13.47c-16.39-7.37-60.58-29.56-69.35-41.06s-14.46-28.2-18.73-33a5.73,5.73,0,0,0-1.64-1.24l-1.39-.74a5.74,5.74,0,0,0-1.84-.63,20.21,20.21,0,0,0-21.69,11.6c-3.85,8.81-12.54,17.63-18.8,26.29a19.3,19.3,0,0,1-15.62,8H403a6.09,6.09,0,0,1-5.91-4.67,5.94,5.94,0,0,1-.14-2.07l6.2-57.54c0-.09,0-.19,0-.29h.22c.18-6.55-.26-33-18.33-39.12-2.33-.44-4.83-.86-7.47-1.25h-.65c-7.61,0-9.75,2.57-11.42,5.78s-2.92,7.26-9,9.89c-31.62,13.65-59.81-9.86-88.8-10.43h-1.31c-15.13,0-21.59,9.87-24.3,19.36-.21.7-.39,1.39-.55,2.08-.11.49-.21,1-.31,1.44s-.13.63-.18.94c-.15.79-.27,1.56-.37,2.3,0,.38-.1.74-.14,1.1s-.07.62-.1.92a.76.76,0,0,0,0,.15c0,.37-.08.74-.1,1.09a55.3,55.3,0,0,0-.15,6.06l6.2,57.54a5.94,5.94,0,0,1-.14,2.07,6.09,6.09,0,0,1-5.91,4.67h-3.12a19.3,19.3,0,0,1-15.62-8c-6.26-8.66-14.95-17.48-18.8-26.29a20.21,20.21,0,0,0-21.69-11.6,5.74,5.74,0,0,0-1.84.63l-1.39.74a5.73,5.73,0,0,0-1.64,1.24c-4.27,4.76-10,21.43-18.73,33s-53,33.69-69.35,41.06l-29,13.47a3.25,3.25,0,0,1-.43.18l-21,7.88a7.08,7.08,0,0,1-1,.28l-25.16,4.87-.45.07L6.93,313A6.2,6.2,0,0,1,0,306.88V6.2A6.21,6.21,0,0,1,6.2,0H637A6.21,6.21,0,0,1,643.24,6.2Z"
           id="path206" />
        <path
           class="cls-36"
           d="M643.24,6.2V306.88a6.2,6.2,0,0,1-6.93,6.16l-4.11-.48-.45-.07-25.16-4.87a7.08,7.08,0,0,1-1-.28l-21-7.88a3.25,3.25,0,0,1-.43-.18l-29-13.47c-16.39-7.37-60.58-29.56-69.35-41.06s-14.46-28.2-18.73-33a5.73,5.73,0,0,0-1.64-1.24l-1.39-.74a5.74,5.74,0,0,0-1.84-.63,20.21,20.21,0,0,0-21.69,11.6c-3.85,8.81-12.54,17.63-18.8,26.29a19.3,19.3,0,0,1-15.62,8H403a6.09,6.09,0,0,1-5.91-4.67,5.94,5.94,0,0,1-.14-2.07l6.2-57.54c0-.09,0-.19,0-.29h.22c.18-6.55-.26-33-18.33-39.12-2.33-.44-4.83-.86-7.47-1.25h-.65c-7.61,0-9.75,2.57-11.42,5.78s-2.92,7.26-9,9.89c-31.62,13.65-59.81-9.86-88.8-10.43h-1.31c-15.13,0-21.59,9.87-24.3,19.36-.21.7-.39,1.39-.55,2.08-.11.49-.21,1-.31,1.44s-.13.63-.18.94c-.15.79-.27,1.56-.37,2.3,0,.38-.1.74-.14,1.1s-.07.62-.1.92a.76.76,0,0,0,0,.15c0,.37-.08.74-.1,1.09a55.3,55.3,0,0,0-.15,6.06l6.2,57.54a5.94,5.94,0,0,1-.14,2.07,6.09,6.09,0,0,1-5.91,4.67h-3.12a19.3,19.3,0,0,1-15.62-8c-6.26-8.66-14.95-17.48-18.8-26.29a20.21,20.21,0,0,0-21.69-11.6,5.74,5.74,0,0,0-1.84.63l-1.39.74a5.73,5.73,0,0,0-1.64,1.24c-4.27,4.76-10,21.43-18.73,33s-53,33.69-69.35,41.06l-29,13.47a3.25,3.25,0,0,1-.43.18l-21,7.88a7.08,7.08,0,0,1-1,.28l-25.16,4.87-.45.07L6.93,313A6.2,6.2,0,0,1,0,306.88V6.2A6.21,6.21,0,0,1,6.2,0H637A6.21,6.21,0,0,1,643.24,6.2Z"
           id="path208" />
        <path
           class="cls-37"
           d="m 365.00145,206.64561 a 5,5 0 0 0 -3.30911,-9.30778 c -7.04261,1.03774 -13.533,2.34888 -21.68036,7.73477 a 5.0352979,5.0352979 0 1 0 5.5444,8.40693 c 6.95906,-4.61589 12.37561,-5.408 17.6158,-6.18295 a 5.3,5.3 0 0 0 1.82927,-0.65097 z"
           id="path210" />
        <path
           class="cls-37"
           d="m 278.43564,206.27723 a 5,5 0 0 1 3.58178,-9.20629 c 7.00899,1.24468 13.45795,2.74638 21.44318,8.36987 a 5.0352979,5.0352979 0 0 1 -5.78958,8.24001 c -6.82926,-4.82283 -12.21098,-5.7701 -17.42607,-6.69903 a 5.31,5.31 0 0 1 -1.80931,-0.70456 z"
           id="path212" />
        <rect
           class="cls-39"
           x="992"
           width="32"
           height="32"
           id="rect222" />
        <path
           class="cls-26"
           d="m 309.52973,268.73656 c 3.61756,-2.25907 8.2511,-2.52007 12.69104,-2.21308 4.43993,0.30699 9.24838,1.1005 13.03033,3.93764 1.87701,1.44559 4.8271,0.4423 4.12049,-1.92884 -1.16223,-3.98895 -7.9349,-9.2821 -17.26574,-9.76827 -9.33084,-0.48618 -15.28976,3.88649 -16.35092,7.53697 -0.62982,2.182 1.96465,3.58569 3.7748,2.43558 z"
           id="path169"
           style="fill:#f45151" />
      </g>
    </g>
  </g>
</svg>
